<svg width="14" height="14" viewBox="0 0 14 14" fill="none" xmlns="http://www.w3.org/2000/svg">
<path fill-rule="evenodd" clip-rule="evenodd" d="M3.52958 3.16997C3.2417 3.16997 3.00832 3.40334 3.00832 3.69122V10.9887C3.00832 11.2766 3.2417 11.51 3.52958 11.51H10.8271C11.115 11.51 11.3484 11.2766 11.3484 10.9887V3.69122C11.3484 3.40334 11.115 3.16997 10.8271 3.16997H3.52958ZM1.96582 3.69122C1.96582 2.82758 2.66594 2.12746 3.52958 2.12746H10.8271C11.6907 2.12746 12.3909 2.82758 12.3909 3.69122V10.9887C12.3909 11.8524 11.6907 12.5525 10.8271 12.5525H3.52958C2.66594 12.5525 1.96582 11.8524 1.96582 10.9887V3.69122Z" fill="#474D5C"/>
<path fill-rule="evenodd" clip-rule="evenodd" d="M9.26334 1.08496C9.55122 1.08496 9.7846 1.31833 9.7846 1.60621V3.69122C9.7846 3.9791 9.55122 4.21247 9.26334 4.21247C8.97546 4.21247 8.74209 3.9791 8.74209 3.69122V1.60621C8.74209 1.31833 8.97546 1.08496 9.26334 1.08496Z" fill="#474D5C"/>
<path fill-rule="evenodd" clip-rule="evenodd" d="M5.09333 1.08496C5.38121 1.08496 5.61458 1.31833 5.61458 1.60621V3.69122C5.61458 3.9791 5.38121 4.21247 5.09333 4.21247C4.80545 4.21247 4.57208 3.9791 4.57208 3.69122V1.60621C4.57208 1.31833 4.80545 1.08496 5.09333 1.08496Z" fill="#474D5C"/>
<path fill-rule="evenodd" clip-rule="evenodd" d="M1.96582 5.77623C1.96582 5.48835 2.19919 5.25497 2.48707 5.25497H11.8696C12.1575 5.25497 12.3909 5.48835 12.3909 5.77623C12.3909 6.06411 12.1575 6.29748 11.8696 6.29748H2.48707C2.19919 6.29748 1.96582 6.06411 1.96582 5.77623Z" fill="#474D5C"/>
</svg>
