<svg width="13" height="14" viewBox="0 0 13 14" fill="none" xmlns="http://www.w3.org/2000/svg">
<g clip-path="url(#clip0)">
<path fill-rule="evenodd" clip-rule="evenodd" d="M6.31775 2.12746C3.72684 2.12746 1.62649 4.22782 1.62649 6.81873C1.62649 9.40964 3.72684 11.51 6.31775 11.51C8.90867 11.51 11.009 9.40964 11.009 6.81873C11.009 4.22782 8.90867 2.12746 6.31775 2.12746ZM0.583984 6.81873C0.583984 3.65206 3.15108 1.08496 6.31775 1.08496C9.48443 1.08496 12.0515 3.65206 12.0515 6.81873C12.0515 9.9854 9.48443 12.5525 6.31775 12.5525C3.15108 12.5525 0.583984 9.9854 0.583984 6.81873Z" fill="#70778B"/>
<path fill-rule="evenodd" clip-rule="evenodd" d="M6.31775 3.16997C6.60563 3.16997 6.839 3.40334 6.839 3.69122V6.49658L8.63587 7.39501C8.89336 7.52375 8.99772 7.83686 8.86898 8.09434C8.74024 8.35183 8.42714 8.4562 8.16965 8.32745L6.08464 7.28495C5.90805 7.19666 5.7965 7.01617 5.7965 6.81873V3.69122C5.7965 3.40334 6.02987 3.16997 6.31775 3.16997Z" fill="#70778B"/>
</g>
<defs>
<clipPath id="clip0">
<rect width="12.51" height="12.51" fill="white" transform="translate(0.0625 0.563477)"/>
</clipPath>
</defs>
</svg>
