<svg width="12" height="12" viewBox="0 0 12 12" fill="none" xmlns="http://www.w3.org/2000/svg">
<path fill-rule="evenodd" clip-rule="evenodd" d="M2 5.49951C2.27614 5.49951 2.5 5.72337 2.5 5.99951V10.4995H9.5V5.99951C9.5 5.72337 9.72386 5.49951 10 5.49951C10.2761 5.49951 10.5 5.72337 10.5 5.99951V10.9995C10.5 11.2757 10.2761 11.4995 10 11.4995H2C1.72386 11.4995 1.5 11.2757 1.5 10.9995V5.99951C1.5 5.72337 1.72386 5.49951 2 5.49951Z" fill="white"/>
<path fill-rule="evenodd" clip-rule="evenodd" d="M0.5 3.49951C0.5 3.22337 0.723858 2.99951 1 2.99951H11C11.2761 2.99951 11.5 3.22337 11.5 3.49951V5.99951C11.5 6.27565 11.2761 6.49951 11 6.49951H1C0.723858 6.49951 0.5 6.27565 0.5 5.99951V3.49951ZM1.5 3.99951V5.49951H10.5V3.99951H1.5Z" fill="white"/>
<path fill-rule="evenodd" clip-rule="evenodd" d="M6 2.99951C6.27614 2.99951 6.5 3.22337 6.5 3.49951V10.9995C6.5 11.2757 6.27614 11.4995 6 11.4995C5.72386 11.4995 5.5 11.2757 5.5 10.9995V3.49951C5.5 3.22337 5.72386 2.99951 6 2.99951Z" fill="white"/>
<path fill-rule="evenodd" clip-rule="evenodd" d="M3.75 1.49951C3.55109 1.49951 3.36032 1.57853 3.21967 1.71918C3.07902 1.85983 3 2.0506 3 2.24951C3 2.44842 3.07902 2.63919 3.21967 2.77984C3.36032 2.92049 3.55109 2.99951 3.75 2.99951H5.32701C5.26597 2.83982 5.1887 2.66422 5.09314 2.49047C4.77866 1.91868 4.34695 1.49951 3.75 1.49951ZM6 3.49951C6.49029 3.40145 6.49026 3.40128 6.49022 3.4011L6.48994 3.3997L6.48939 3.39703L6.48771 3.38898C6.48633 3.38243 6.48441 3.37354 6.48194 3.36245C6.47699 3.3403 6.4698 3.30934 6.46017 3.27082C6.44094 3.19389 6.41183 3.08623 6.3712 2.95794C6.29052 2.70317 6.16166 2.35818 5.96936 2.00855C5.59634 1.33034 4.90305 0.499512 3.75 0.499512C3.28587 0.499512 2.84075 0.683886 2.51256 1.01207C2.18437 1.34026 2 1.78538 2 2.24951C2 2.71364 2.18437 3.15876 2.51256 3.48695C2.84075 3.81514 3.28587 3.99951 3.75 3.99951H6C6.1498 3.99951 6.2917 3.93235 6.38667 3.81651C6.48164 3.70066 6.5196 3.54799 6.49022 3.4011L6 3.49951Z" fill="white"/>
<path fill-rule="evenodd" clip-rule="evenodd" d="M6.03064 2.00855C6.40366 1.33034 7.09695 0.499512 8.25 0.499512C8.71413 0.499512 9.15925 0.683886 9.48744 1.01207C9.81563 1.34026 10 1.78538 10 2.24951C10 2.71364 9.81563 3.15876 9.48744 3.48695C9.15925 3.81514 8.71413 3.99951 8.25 3.99951H6C5.8502 3.99951 5.7083 3.93235 5.61333 3.81651C5.51836 3.70066 5.48033 3.54834 5.50971 3.40145L6 3.49951C5.50971 3.40145 5.50967 3.40163 5.50971 3.40145L5.50986 3.40069L5.51006 3.3997L5.51061 3.39703L5.51229 3.38898C5.51367 3.38243 5.51559 3.37354 5.51806 3.36245C5.52301 3.3403 5.5302 3.30934 5.53983 3.27082C5.55906 3.19389 5.58817 3.08623 5.6288 2.95794C5.70948 2.70317 5.83834 2.35818 6.03064 2.00855ZM6.67299 2.99951H8.25C8.44891 2.99951 8.63968 2.92049 8.78033 2.77984C8.92098 2.63919 9 2.44842 9 2.24951C9 2.0506 8.92098 1.85983 8.78033 1.71918C8.63968 1.57853 8.44891 1.49951 8.25 1.49951C7.65305 1.49951 7.22134 1.91868 6.90686 2.49047C6.8113 2.66422 6.73403 2.83982 6.67299 2.99951ZM6.49012 3.59841C6.49009 3.59857 6.49009 3.59855 6.49012 3.59841V3.59841Z" fill="white"/>
</svg>
