<svg width="15" height="9" viewBox="0 0 15 9" fill="none" xmlns="http://www.w3.org/2000/svg">
<path fill-rule="evenodd" clip-rule="evenodd" d="M13.8741 0.647905C14.1019 0.875711 14.1019 1.24506 13.8741 1.47286L8.3324 7.01453C8.1046 7.24234 7.73525 7.24234 7.50744 7.01453L5.00325 4.51034L1.04073 8.47286C0.812928 8.70067 0.443582 8.70067 0.215776 8.47286C-0.0120296 8.24506 -0.0120296 7.87571 0.215776 7.64791L4.59078 3.27291C4.81858 3.0451 5.18793 3.0451 5.41573 3.27291L7.91992 5.77709L13.0491 0.647905C13.2769 0.420099 13.6463 0.420099 13.8741 0.647905Z" fill="#70778B"/>
<path fill-rule="evenodd" clip-rule="evenodd" d="M9.37825 1.06038C9.37825 0.738218 9.63942 0.477051 9.96159 0.477051H13.4616C13.7838 0.477051 14.0449 0.738218 14.0449 1.06038V4.56038C14.0449 4.88255 13.7838 5.14372 13.4616 5.14372C13.1394 5.14372 12.8783 4.88255 12.8783 4.56038V1.64372H9.96159C9.63942 1.64372 9.37825 1.38255 9.37825 1.06038Z" fill="#70778B"/>
</svg>
