<svg width="12" height="13" viewBox="0 0 12 13" fill="none" xmlns="http://www.w3.org/2000/svg">
<path fill-rule="evenodd" clip-rule="evenodd" d="M1.91016 1.89469C1.75545 1.89469 1.60707 1.95615 1.49768 2.06555C1.38828 2.17494 1.32682 2.32332 1.32682 2.47803V10.4031L2.66434 9.06555C2.77374 8.95615 2.92211 8.89469 3.07682 8.89469H10.0768C10.2315 8.89469 10.3799 8.83324 10.4893 8.72384C10.5987 8.61444 10.6602 8.46607 10.6602 8.31136V2.47803C10.6602 2.32332 10.5987 2.17494 10.4893 2.06555C10.3799 1.95615 10.2315 1.89469 10.0768 1.89469H1.91016ZM0.672719 1.24059C1.00091 0.912402 1.44603 0.728027 1.91016 0.728027H10.0768C10.541 0.728027 10.9861 0.912402 11.3143 1.24059C11.6424 1.56878 11.8268 2.0139 11.8268 2.47803V8.31136C11.8268 8.77549 11.6424 9.22061 11.3143 9.5488C10.9861 9.87699 10.541 10.0614 10.0768 10.0614H3.31845L1.15597 12.2238C0.989136 12.3907 0.738234 12.4406 0.520258 12.3503C0.302281 12.26 0.160156 12.0473 0.160156 11.8114V2.47803C0.160156 2.0139 0.344531 1.56878 0.672719 1.24059Z" fill="#70778B"/>
</svg>
