<svg width="14" height="13" viewBox="0 0 14 13" fill="none" xmlns="http://www.w3.org/2000/svg">
<g clip-path="url(#clip0)">
<path d="M10.5146 12.262H3.21708C2.33095 12.262 1.65332 11.5843 1.65332 10.6982V7.04945C1.65332 6.16333 2.33095 5.4857 3.21708 5.4857H10.5146C11.4007 5.4857 12.0784 6.16333 12.0784 7.04945V10.6982C12.0784 11.5843 11.4007 12.262 10.5146 12.262ZM3.21708 6.5282C2.90432 6.5282 2.69582 6.7367 2.69582 7.04945V10.6982C2.69582 11.011 2.90432 11.2195 3.21708 11.2195H10.5146C10.8273 11.2195 11.0359 11.011 11.0359 10.6982V7.04945C11.0359 6.7367 10.8273 6.5282 10.5146 6.5282H3.21708Z" fill="white"/>
<path d="M4.25958 6.5282C3.94683 6.5282 3.73833 6.3197 3.73833 6.00695V3.92194C3.73833 3.08794 4.05108 2.30606 4.67658 1.73269C5.24996 1.10718 6.03183 0.794434 6.86584 0.794434C8.32534 0.794434 9.62847 1.83694 9.94122 3.29644C9.99335 3.55707 9.78485 3.86982 9.52422 3.92194C9.2636 3.97407 8.95084 3.81769 8.89872 3.50494C8.69022 2.51456 7.85622 1.83694 6.86584 1.83694C6.29246 1.83694 5.77121 2.04544 5.40633 2.46244C4.98933 2.82732 4.78083 3.34857 4.78083 3.92194V6.00695C4.78083 6.3197 4.57233 6.5282 4.25958 6.5282Z" fill="white"/>
</g>
<defs>
<clipPath id="clip0">
<rect width="12.51" height="12.51" fill="white" transform="translate(0.610352 0.272949)"/>
</clipPath>
</defs>
</svg>
