<svg width="594" height="200" viewBox="0 0 594 200" fill="none" xmlns="http://www.w3.org/2000/svg">
<mask id="mask0" mask-type="alpha" maskUnits="userSpaceOnUse" x="0" y="0" width="594" height="200">
<g clip-path="url(#clip0)">
<path d="M574.993 -11.2712L582.833 19.8543L594.001 22.7055V15.8151L588.061 14.3895L580.457 -16.736L549.332 -24.5768L542.917 -50H536.026L543.63 -19.112L574.993 -11.2712Z" fill="#E6E7E8"/>
<path d="M586.633 -23.1512L593.999 6.54876V-20.7752L592.098 -28.616L560.973 -36.4568L557.409 -50H550.756L555.508 -30.992L586.633 -23.1512Z" fill="#E6E7E8"/>
<path d="M512.505 -26.7152L520.108 4.41035L551.471 12.2511L559.074 43.3767L590.437 51.2175L594.001 65.9487V45.2775L564.539 37.9119L556.936 6.78635L525.573 -1.05445L517.969 -32.18L486.606 -40.0208L484.23 -50H477.34L481.141 -34.556L512.505 -26.7152Z" fill="#E6E7E8"/>
<path d="M524.145 -38.5952L531.748 -7.46964L563.112 0.371151L570.715 31.4967L594 37.1991V30.5463L576.18 26.0319L568.576 -5.09364L537.451 -12.9344L529.61 -44.06L505.85 -50H492.069L493.02 -46.436L524.145 -38.5952Z" fill="#E6E7E8"/>
<path d="M449.779 -42.1592L457.62 -11.0336L488.983 -3.19284L496.586 27.9327L527.712 35.7735L535.552 66.8991L566.678 74.7399L574.519 105.865L594.002 110.855V103.965L579.984 100.401L572.143 69.2751L541.017 61.4343L533.176 30.3087L502.051 22.4679L494.21 -8.65763L463.084 -16.4984L455.481 -47.624L445.74 -50H418.653L449.779 -42.1592Z" fill="#E6E7E8"/>
<path d="M500.622 -15.0728L508.226 16.0527L539.589 23.8935L547.192 55.0191L578.318 62.8599L586.158 93.9855L593.999 95.8863V89.2335L591.623 88.5207L583.782 57.3951L552.657 49.5543L544.816 18.4287L513.69 10.588L506.087 -20.5376L474.724 -28.3784L469.259 -50H462.606L469.259 -22.9136L500.622 -15.0728Z" fill="#E6E7E8"/>
<path d="M426.251 -18.6368L434.092 12.7264L465.218 20.3295L473.058 51.6927L504.184 59.2959L512.025 90.4215L543.15 98.2623L550.991 129.388L582.117 137.229L589.957 168.354L593.997 169.542V157.425L587.581 131.764L556.456 123.923L548.615 92.7975L517.489 84.9567L509.649 53.8311L478.523 46.2279L470.682 14.8647L439.557 7.26155L431.716 -24.1016L400.59 -31.7048L396.076 -50H389.186L395.126 -26.24L426.251 -18.6368Z" fill="#E6E7E8"/>
<path d="M437.897 -30.5168L445.737 0.846355L476.863 8.44955L484.704 39.5751L515.829 47.4159L523.67 78.5415L554.796 86.3823L562.637 117.508L593.762 125.349L594 126.061V118.696L568.101 112.043L560.261 80.9175L529.135 73.0767L521.294 41.9511L490.169 34.1103L482.328 2.98475L451.202 -4.85604L443.599 -35.9816L412.236 -43.5848L410.81 -50H403.92L406.771 -38.12L437.897 -30.5168Z" fill="#E6E7E8"/>
<path d="M363.763 -33.8432L371.604 -2.71764L402.729 4.88555L410.57 36.2487L441.696 43.8519L449.537 75.2151L480.662 82.8183L488.503 114.181L519.629 121.785L527.469 152.91L558.595 160.751L566.436 191.877L593.997 198.767V192.114L571.9 186.649L564.06 155.286L532.934 147.445L525.093 116.32L493.968 108.717L486.127 77.3535L455.001 69.7503L447.161 38.3871L416.035 30.7839L408.194 -0.57925L377.069 -8.18244L369.228 -39.308L338.102 -47.1488L337.389 -50H330.499L332.637 -41.684L363.763 -33.8432Z" fill="#E6E7E8"/>
<path d="M383.251 -14.5976L414.377 -6.99444L422.217 24.3687L453.343 31.9719L461.184 63.3351L492.309 70.9383L500.15 102.064L531.276 109.905L539.117 141.03L570.242 148.871L578.083 179.997L594.002 184.036V177.145L583.548 174.532L575.707 143.406L544.581 135.565L536.741 104.44L505.615 96.5991L497.774 65.4735L466.649 57.8703L458.808 26.5071L427.682 18.9039L419.841 -12.4592L388.716 -20.0624L381.35 -50H358.778L375.41 -45.9608L383.251 -14.5976Z" fill="#E6E7E8"/>
<path d="M309.118 -18.1616L340.244 -10.3208L348.085 20.8047L379.21 28.6455L387.051 59.7711L418.177 67.6119L426.018 98.7375L457.143 106.341L464.984 137.704L496.109 145.307L503.95 176.67L535.076 184.273L542.917 215.637L574.042 223.24L581.645 254.603L594.001 257.454V250.801L587.348 249.138L579.507 217.775L548.381 210.172L540.541 178.809L509.415 171.205L501.574 140.08L470.449 132.239L462.608 100.876L431.482 93.2727L423.642 62.1471L392.516 54.3063L384.675 23.1807L353.55 15.3399L345.709 -15.7856L314.583 -23.6264L307.93 -50H298.664L301.278 -49.2872L309.118 -18.1616Z" fill="#E6E7E8"/>
<path d="M351.887 -22.2008L359.727 8.92475L390.853 16.7655L398.694 47.8911L429.819 55.7319L437.66 86.8575L468.786 94.4607L476.627 125.824L507.752 133.427L515.593 164.79L546.719 172.393L554.559 203.757L585.685 211.36L593.526 242.485L594.001 242.723V217.537L591.15 205.895L560.024 198.292L552.183 166.929L521.058 159.325L513.217 127.962L482.091 120.359L474.251 88.9959L443.125 81.3927L435.284 50.2671L404.159 42.4263L396.318 11.3007L365.192 3.45995L357.351 -27.6656L326.226 -35.5064L322.662 -50H315.771L320.761 -30.0416L351.887 -22.2008Z" fill="#E6E7E8"/>
<path d="M277.754 -25.7648L285.594 5.36076L316.72 13.2016L324.561 44.3271L355.686 52.1679L363.527 83.2935L394.653 91.1343L402.494 122.26L433.619 130.101L441.46 161.226L472.585 169.067L480.189 200.193L511.552 208.033L519.155 239.159L550.518 247L558.359 278.125L589.485 285.729L593.999 304.261V280.026L563.586 272.661L555.983 241.297L524.62 233.694L517.017 202.569L485.891 194.728L478.05 163.602L446.925 155.761L439.084 124.636L407.958 116.795L400.118 85.6695L368.992 77.8287L361.151 46.7031L330.026 38.8623L322.185 7.73676L291.059 -0.104042L283.218 -31.2296L252.093 -39.0704L249.242 -50H242.589L246.628 -33.6056L277.754 -25.7648Z" fill="#E6E7E8"/>
<path d="M289.399 -37.6448L297.239 -6.51924L328.365 1.32155L336.206 32.4471L367.331 40.2879L375.172 71.4135L406.298 79.2543L414.138 110.38L445.264 118.221L453.105 149.346L484.23 157.187L492.071 188.313L523.197 195.916L531.038 227.279L562.163 234.882L569.766 266.245L594.001 272.185V265.295L575.231 260.78L567.628 229.417L536.502 221.814L528.662 190.451L497.536 182.848L489.695 151.722L458.57 143.881L450.729 112.756L419.603 104.915L411.762 73.7895L380.637 65.9487L372.796 34.8231L341.671 26.9823L333.83 -4.14325L302.704 -11.984L294.863 -43.1096L267.539 -50H257.085L258.273 -45.4856L289.399 -37.6448Z" fill="#E6E7E8"/>
<path d="M215.266 -41.2088L223.106 -10.0832L254.232 -2.24244L262.073 28.8831L293.198 36.7239L301.039 67.8495L332.165 75.6903L339.768 106.816L371.131 114.657L378.972 145.782L410.097 153.623L417.701 184.749L449.064 192.589L456.667 223.715L488.03 231.556L495.633 262.681L526.759 270.285L534.6 301.648L565.963 309.488L573.566 340.614L594 345.604V338.713L579.031 335.149L571.19 303.786L540.064 296.183L532.461 265.057L501.098 257.217L493.495 226.091L462.132 218.25L454.529 187.125L423.165 179.284L415.562 148.158L384.199 140.317L376.596 109.192L345.47 101.351L337.629 70.2255L306.504 62.3847L298.663 31.2591L267.537 23.4183L259.697 -7.70724L228.571 -15.548L220.73 -46.6736L207.187 -50H183.902L184.14 -49.0496L215.266 -41.2088Z" fill="#E6E7E8"/>
<path d="M265.876 -14.1224L273.716 17.0031L304.842 24.8439L312.683 55.9695L343.808 63.8103L351.649 94.9359L382.775 102.777L390.616 133.902L421.741 141.743L429.582 172.869L460.707 180.709L468.311 211.835L499.674 219.676L507.277 250.801L538.64 258.642L546.243 289.768L577.607 297.371L585.21 328.734L594.001 330.872V323.982L590.675 323.269L582.834 291.906L551.708 284.303L544.105 253.177L512.742 245.337L505.139 214.211L474.013 206.37L466.172 175.245L434.809 167.404L427.206 136.278L396.08 128.437L388.24 97.3119L357.114 89.4711L349.273 58.3455L318.148 50.5047L310.307 19.3791L279.181 11.5383L271.34 -19.5872L240.215 -27.428L234.512 -50H227.622L234.75 -21.9632L265.876 -14.1224Z" fill="#E6E7E8"/>
<path d="M191.744 -17.6864L199.584 13.4391L230.71 21.2799L238.551 52.4055L269.676 60.2463L277.28 91.3719L308.643 99.2127L316.246 130.338L347.609 138.179L355.212 169.305L386.575 177.145L394.179 208.271L425.542 216.112L433.145 247.237L464.271 255.078L472.111 286.204L503.237 294.044L511.078 325.17L542.203 333.011L550.044 364.136L581.17 371.977L589.01 403.103L594 404.291V395.737L586.634 366.512L555.509 358.672L547.668 327.546L516.543 319.705L508.702 288.58L477.576 280.739L469.735 249.613L438.61 241.773L430.769 210.647L399.643 202.806L392.04 171.681L360.677 163.84L353.074 132.714L321.711 124.873L314.108 93.7479L282.744 85.9071L275.141 54.7815L244.016 46.9407L236.175 15.8151L205.049 7.97435L197.208 -23.1512L166.083 -30.992L161.331 -50H154.44L160.618 -25.5272L191.744 -17.6864Z" fill="#E6E7E8"/>
<path d="M203.388 -29.5664L211.228 1.55915L242.354 9.39994L250.195 40.5255L281.32 48.3663L289.161 79.4919L320.287 87.3327L328.127 118.458L359.253 126.299L366.856 157.425L398.219 165.265L405.823 196.391L437.186 204.232L444.789 235.357L476.152 243.198L483.755 274.324L515.118 282.164L522.722 313.29L553.847 321.131L561.688 352.256L592.814 359.86L594.002 364.374V353.444L567.153 346.792L559.312 315.666L528.186 307.825L520.583 276.7L489.22 268.859L481.379 237.733L450.254 229.893L442.413 198.767L411.287 190.926L403.684 159.801L372.321 151.96L364.718 120.834L333.355 112.993L325.751 81.8679L294.626 74.0271L286.785 42.9015L255.659 35.0607L247.819 3.93515L216.693 -3.90564L208.852 -35.0312L177.727 -42.872L175.826 -50H168.936L172.262 -37.4072L203.388 -29.5664Z" fill="#E6E7E8"/>
<path d="M129.254 -33.1304L137.095 -1.76724L168.221 5.83595L175.824 37.1991L207.187 44.8023L214.79 75.9279L246.154 83.7687L253.757 114.894L285.12 122.735L292.723 153.861L324.086 161.701L331.69 192.827L362.815 200.668L370.656 231.793L401.781 239.634L409.622 270.76L440.748 278.601L448.589 309.726L479.714 317.567L487.555 348.692L518.681 356.533L526.521 387.659L557.647 395.5L565.488 426.625L594 433.753V426.863L570.953 421.16L563.112 390.035L531.986 382.194L524.145 351.068L493.02 343.228L485.179 312.102L454.053 304.261L446.213 273.136L415.087 265.295L407.246 234.169L376.121 226.329L368.28 195.203L337.154 187.362L329.314 156.237L298.188 148.396L290.585 117.27L259.222 109.429L251.618 78.3039L220.255 70.7007L212.652 39.3375L181.289 31.7343L173.686 0.371155L142.322 -7.23204L134.719 -38.5952L103.594 -46.1984L102.643 -50H95.7529L98.1289 -40.7336L129.254 -33.1304Z" fill="#E6E7E8"/>
<path d="M148.738 -13.6472L179.864 -6.04404L187.705 25.3191L218.83 32.9223L226.671 64.0479L257.797 71.8887L265.4 103.014L296.763 110.855L304.366 141.981L335.729 149.821L343.332 180.947L374.458 188.788L382.299 219.913L413.424 227.754L421.265 258.88L452.391 266.721L460.232 297.846L491.357 305.687L499.198 336.812L530.324 344.653L538.164 375.779L569.29 383.62L577.131 414.745L594 419.022V412.132L582.595 409.28L574.755 378.155L543.629 370.314L535.788 339.188L504.663 331.348L496.822 300.222L465.696 292.381L457.856 261.256L426.73 253.415L418.889 222.289L387.764 214.449L379.923 183.323L348.797 175.482L341.194 144.357L309.831 136.516L302.228 105.39L270.865 97.5495L263.261 66.4239L232.136 58.8207L224.295 27.4575L193.169 19.8543L185.329 -11.5088L154.203 -19.112L146.362 -50H120.464L140.897 -45.0104L148.738 -13.6472Z" fill="#E6E7E8"/>
<path d="M74.369 -17.2112L105.732 -9.37043L113.335 21.7551L144.699 29.5959L152.302 60.7215L183.665 68.3247L191.268 99.6879L222.631 107.291L230.234 138.654L261.36 146.257L269.201 177.621L300.326 185.224L308.167 216.349L339.293 224.19L347.134 255.316L378.259 263.157L386.1 294.282L417.225 302.123L425.066 333.248L456.192 341.089L464.033 372.215L495.158 380.056L502.999 411.181L534.125 419.022L541.965 450.148L573.091 457.988L580.932 489.114L594 492.44V485.55L586.397 483.649L578.556 452.524L547.43 444.683L539.589 413.557L508.464 405.716L500.623 374.591L469.497 366.75L461.657 335.624L430.531 327.784L422.69 296.658L391.565 288.817L383.724 257.692L352.598 249.851L344.758 218.725L313.632 211.122L305.791 179.759L274.666 172.156L266.825 140.793L235.699 133.189L228.096 101.826L196.733 94.2231L189.13 62.8599L157.767 55.2567L150.163 24.1311L118.8 16.2903L111.197 -14.8352L79.8338 -22.676L73.181 -50H60.3506L66.7658 -48.3368L74.369 -17.2112Z" fill="#E6E7E8"/>
<path d="M117.373 -21.2504L125.214 9.87515L156.34 17.4783L163.943 48.8415L195.306 56.4447L202.909 87.8079L234.272 95.4111L241.876 126.774L273.239 134.377L280.842 165.503L311.968 173.344L319.808 204.469L350.934 212.31L358.775 243.436L389.9 251.277L397.741 282.402L428.867 290.243L436.707 321.368L467.833 329.209L475.674 360.335L506.799 368.176L514.64 399.301L545.766 407.142L553.607 438.268L584.732 446.108L592.573 477.234L593.999 477.709V455.85L590.197 440.644L559.071 432.803L551.231 401.677L520.105 393.836L512.264 362.711L481.139 354.87L473.298 323.744L442.172 315.904L434.331 284.778L403.206 276.937L395.365 245.812L364.24 237.971L356.399 206.845L325.273 199.005L317.432 167.879L286.307 160.276L278.704 128.913L247.34 121.309L239.737 89.9463L208.374 82.3431L200.771 50.9799L169.408 43.3767L161.804 12.0135L130.441 4.41035L122.838 -26.7152L91.7125 -34.556L87.6733 -50H81.0205L86.2477 -29.0912L117.373 -21.2504Z" fill="#E6E7E8"/>
<path d="M43.2445 -24.8144L50.8477 6.31115L82.2108 14.1519L89.814 45.2775L120.94 53.1183L128.78 84.2439L159.906 92.0847L167.747 123.21L198.872 130.813L206.713 162.177L237.839 169.78L245.679 201.143L276.805 208.746L284.646 240.109L315.771 247.713L323.612 279.076L354.738 286.679L362.579 317.804L393.704 325.645L401.545 356.771L432.671 364.612L440.511 395.737L471.637 403.578L479.478 434.704L510.603 442.544L518.444 473.67L549.57 481.511L557.41 512.636L588.536 520.477L594.001 542.812V515.25V515.012L562.875 507.172L555.034 476.046L523.909 468.205L516.068 437.08L484.942 429.239L477.102 398.113L445.976 390.272L438.135 359.147L407.01 351.306L399.169 320.18L368.043 312.34L360.203 281.214L329.077 273.611L321.236 242.248L290.111 234.645L282.27 203.281L251.144 195.678L243.303 164.315L212.178 156.712L204.337 125.586L173.212 117.745L165.371 86.6199L134.245 78.7791L126.404 47.6535L95.2788 39.8127L87.6756 8.68715L56.3125 0.846359L48.7093 -30.2792L17.3461 -38.12L14.4949 -50H7.60449L11.8813 -32.6552L43.2445 -24.8144Z" fill="#E6E7E8"/>
<path d="M54.8842 -36.6944L62.4874 -5.56884L93.8506 2.27196L101.454 33.3975L132.817 41.2383L140.42 72.3639L171.783 80.2047L179.387 111.33L210.512 118.933L218.353 150.297L249.478 157.9L257.319 189.263L288.445 196.866L296.286 228.229L327.411 235.833L335.252 266.958L366.378 274.799L374.218 305.924L405.344 313.765L413.185 344.891L444.31 352.732L452.151 383.857L483.277 391.698L491.117 422.824L522.243 430.664L530.084 461.79L561.209 469.631L569.05 500.756L593.998 506.934V500.281L574.515 495.292L566.674 464.166L535.549 456.325L527.708 425.2L496.582 417.359L488.741 386.233L457.616 378.392L449.775 347.267L418.65 339.426L410.809 308.301L379.683 300.697L371.842 269.334L340.717 261.493L332.876 230.368L301.75 222.765L293.91 191.401L262.784 183.798L254.943 152.435L223.818 144.832L215.977 113.469L184.851 105.865L177.01 74.7399L145.885 66.8991L138.044 35.7735L106.919 27.9327L99.3153 -3.19284L67.9522 -11.0336L60.349 -42.1592L28.9858 -50H22.333L23.521 -44.5352L54.8842 -36.6944Z" fill="#E6E7E8"/>
<path d="M539.114 530.694L531.511 499.568L500.148 491.727L492.544 460.602L461.181 452.761L453.578 421.635L422.453 414.032L414.612 382.669L383.486 375.066L375.645 343.703L344.52 336.1L336.679 304.736L305.553 297.133L297.713 265.77L266.587 258.167L258.746 227.041L227.621 219.2L219.78 188.075L188.654 180.234L180.813 149.108L149.688 141.268L141.847 110.142L110.722 102.301L102.881 71.1758L71.7551 63.335L63.9144 32.2094L32.7888 24.3686L24.948 -6.75697L0 -12.9346V-6.28177L19.4832 -1.29218L27.324 29.8334L58.4496 37.6742L66.2904 68.7998L97.4159 76.6405L105.257 107.766L136.382 115.607L144.223 146.732L175.349 154.573L183.189 185.699L214.315 193.54L222.156 224.665L253.281 232.506L261.122 263.632L292.248 271.235L300.089 302.598L331.214 310.201L339.055 341.564L370.181 349.167L378.021 380.531L409.147 388.134L416.988 419.259L448.113 427.1L455.716 458.226L487.08 466.067L494.683 497.192L526.046 505.033L533.649 536.159L565.012 543.999H571.665L570.477 538.535L539.114 530.694Z" fill="#E6E7E8"/>
<path d="M550.756 518.813L543.153 487.688L511.79 479.847L504.187 448.721L473.061 440.881L465.22 409.755L434.095 401.914L426.254 370.789L395.128 362.948L387.288 331.822L356.162 324.219L348.321 292.856L317.196 285.015L309.355 253.89L278.229 246.286L270.389 214.923L239.263 207.32L231.422 176.195L200.297 168.354L192.456 137.228L161.33 129.387L153.489 98.2618L122.364 90.421L114.523 59.2954L83.3975 51.4546L75.7943 20.329L44.4312 12.4883L36.828 -18.6373L5.4648 -26.4781L0 -48.8125V-21.2509V-21.0133L31.3632 -13.1725L38.9664 17.953L70.3295 25.7938L77.9327 56.9194L109.058 64.7602L116.899 95.8858L148.025 103.727L155.865 134.852L186.991 142.693L194.832 173.818L225.957 181.659L233.798 212.785L264.924 220.388L272.765 251.751L303.89 259.354L311.731 290.718L342.857 298.321L350.697 329.684L381.823 337.287L389.664 368.65L420.789 376.254L428.63 407.379L459.756 415.22L467.596 446.345L498.722 454.186L506.325 485.312L537.688 493.153L545.529 524.278L576.655 532.119L579.506 543.999H586.396L582.12 526.654L550.756 518.813Z" fill="#E6E7E8"/>
<path d="M476.625 515.25L469.022 484.124L437.659 476.521L430.056 445.158L398.692 437.554L391.089 406.191L359.726 398.588L352.123 367.463L320.997 359.622L313.157 328.496L282.031 320.655L274.19 289.53L243.065 281.689L235.224 250.563L204.098 242.723L196.257 211.597L165.132 203.756L157.291 172.631L126.165 164.79L118.325 133.664L87.1991 125.824L79.3583 94.698L48.2328 86.8572L40.392 55.7316L9.26639 47.8908L1.4256 16.7652L0 16.29V38.1492L3.8016 53.3556L34.9272 61.1964L42.768 92.322L73.8935 100.163L81.7343 131.288L112.86 139.129L120.701 170.255L151.826 178.096L159.667 209.221L190.793 217.062L198.633 248.187L229.759 256.028L237.6 287.154L268.725 294.757L276.566 326.12L307.692 333.961L315.295 365.087L346.658 372.69L354.499 404.053L385.624 411.656L393.228 443.019L424.591 450.622L432.194 481.748L463.557 489.589L471.16 520.952L502.286 528.555L506.325 543.999H512.978L507.751 523.09L476.625 515.25Z" fill="#E6E7E8"/>
<path d="M519.631 511.211L488.268 503.37L480.664 472.244L449.301 464.641L441.698 433.278L410.335 425.675L402.732 394.549L371.368 386.708L363.765 355.345L332.64 347.742L324.799 316.379L293.673 308.776L285.833 277.65L254.707 269.809L246.866 238.684L215.741 230.843L207.9 199.717L176.774 191.877L168.933 160.751L137.808 152.91L129.967 121.785L98.8415 113.944L91.0007 82.8182L59.8751 74.9774L52.0344 43.8518L20.9088 36.011L13.068 4.88548L0 1.55908V8.44948L7.60319 10.3503L15.444 41.4758L46.5696 49.3166L54.4103 80.4422L85.5359 88.283L93.3767 119.409L124.502 127.249L132.343 158.375L163.469 166.216L171.309 197.341L202.435 205.182L210.276 236.308L241.401 244.148L249.242 275.274L280.368 282.877L288.209 314.24L319.334 321.844L327.175 353.207L358.3 360.81L366.141 392.173L397.267 399.776L404.87 431.139L436.233 438.743L443.836 470.106L475.2 477.709L482.803 509.072L514.166 516.675L520.819 543.999H533.411L527.234 542.574L519.631 511.211Z" fill="#E6E7E8"/>
<path d="M445.262 507.647L414.137 500.044L406.296 468.68L375.17 461.077L367.329 429.952L336.204 422.111L328.601 390.985L297.237 383.144L289.634 352.019L258.509 344.178L250.668 313.053L219.542 305.212L211.701 274.086L180.576 266.245L172.735 235.12L141.609 227.279L133.769 196.153L102.643 188.313L94.8023 157.187L63.6768 149.346L55.836 118.221L24.7104 110.38L16.8696 79.2543L0 74.9775V81.8679L11.4048 84.7191L19.2456 115.845L50.3712 123.685L58.212 154.811L89.3375 162.652L97.1783 193.777L128.304 201.618L136.145 232.744L167.27 240.585L175.111 271.71L206.237 279.551L214.077 310.677L245.203 318.517L252.806 349.643L284.169 357.484L291.773 388.609L323.136 396.45L330.739 427.576L361.865 435.416L369.705 466.542L400.831 474.383L408.672 505.508L439.797 513.112L447.638 544H473.536L453.103 539.01L445.262 507.647Z" fill="#E6E7E8"/>
<path d="M464.745 526.893L457.142 495.767L425.779 488.164L418.176 456.801L386.812 449.197L379.209 418.072L347.846 410.231L340.243 378.868L309.117 371.265L301.277 340.139L270.151 332.298L262.31 301.173L231.185 293.332L223.344 262.206L192.218 254.366L184.377 223.24L153.252 215.399L145.411 184.274L114.286 176.433L106.445 145.307L75.3191 137.467L67.4783 106.341L36.3528 98.5001L28.512 67.3746L0 60.2466V67.137L23.0472 72.8394L30.888 103.965L62.0135 111.806L69.8543 142.931L100.98 150.772L108.821 181.898L139.946 189.738L147.787 220.864L178.913 228.705L186.753 259.83L217.879 267.671L225.72 298.797L256.845 306.638L264.449 337.763L295.812 345.604L303.653 376.729L334.778 384.57L342.381 415.696L373.745 423.537L381.348 454.662L412.711 462.265L420.314 493.629L451.44 501.469L459.28 532.595L490.406 540.198L491.356 544H498.247L496.108 534.733L464.745 526.893Z" fill="#E6E7E8"/>
<path d="M390.614 523.566L382.773 492.44L351.648 484.6L343.807 453.474L312.681 445.633L304.841 414.508L273.715 406.667L265.874 375.541L234.749 367.7L227.145 336.575L195.782 328.734L188.179 297.609L156.816 289.768L149.213 258.642L117.85 250.801L110.246 219.676L79.1207 211.835L71.2799 180.709L40.1544 173.106L32.3136 141.743L1.188 134.14L0 129.625V140.555L26.8488 147.208L34.6896 178.333L65.8151 186.174L73.6559 217.3L104.782 225.141L112.622 256.266L143.748 264.107L151.589 295.233L182.714 303.073L190.555 334.199L221.681 342.04L229.284 373.165L260.647 381.006L268.25 412.132L299.613 419.972L307.217 451.098L338.342 458.939L346.183 490.064L377.309 497.905L385.149 529.031L416.275 536.634L418.176 544H424.828L421.74 531.407L390.614 523.566Z" fill="#E6E7E8"/>
<path d="M402.256 511.686L394.416 480.561L363.29 472.72L355.449 441.594L324.324 433.754L316.483 402.628L285.357 394.787L277.754 363.662L246.391 355.821L238.788 324.695L207.425 316.854L199.821 285.729L168.458 277.888L160.855 246.762L129.729 238.922L121.889 207.796L90.7631 199.955L82.9223 168.83L51.7968 160.989L43.956 129.863L12.8304 122.023L4.9896 90.897L0 89.709V98.2626L7.36559 127.487L38.4912 135.328L46.332 166.454L77.4575 174.295L85.2983 205.42L116.424 213.261L124.265 244.386L155.39 252.227L163.231 283.353L194.357 291.194L201.96 322.319L233.323 330.16L240.926 361.286L272.289 369.126L279.893 400.252L311.018 408.093L318.859 439.218L350.222 447.059L357.825 478.185L388.951 486.025L396.792 517.151L427.917 524.992L432.669 544H439.56L433.382 519.527L402.256 511.686Z" fill="#E6E7E8"/>
<path d="M328.125 508.121L320.285 476.996L289.159 469.155L281.318 438.029L250.193 430.189L242.352 399.063L211.226 391.222L203.385 360.097L172.26 352.256L164.657 321.13L133.294 313.29L125.69 282.164L94.3271 274.323L86.7239 243.198L55.3608 235.357L47.7576 204.231L16.632 196.628L8.79119 165.265L0 163.126V170.017L3.3264 170.73L10.9296 202.093L42.2928 209.696L49.896 241.059L81.2591 248.662L88.8623 279.788L120.226 287.629L127.829 318.754L158.954 326.595L166.795 357.721L197.921 365.562L205.761 396.687L236.887 404.528L244.728 435.653L275.853 443.494L283.694 474.62L314.82 482.461L322.661 513.586L353.786 521.427L359.489 543.999H366.379L359.251 515.962L328.125 508.121Z" fill="#E6E7E8"/>
<path d="M378.734 535.208L370.893 504.082L339.768 496.242L331.927 465.116L300.801 457.275L292.961 426.15L261.835 418.309L253.994 387.183L222.869 379.342L215.265 348.217L183.902 340.376L176.299 309.251L144.936 301.41L137.333 270.284L105.97 262.443L98.3663 231.318L67.2407 223.477L59.3999 192.351L28.2744 184.748L20.4336 153.385L0 148.396V155.286L14.9688 158.85L22.8096 189.975L53.9352 197.816L61.7759 228.942L92.9015 236.783L100.742 267.908L131.868 275.749L139.471 306.875L170.834 314.715L178.437 345.841L209.801 353.682L217.404 384.807L248.767 392.648L256.37 423.774L287.496 431.614L295.337 462.74L326.462 470.581L334.303 501.706L365.428 509.547L373.269 540.673L386.812 543.999H410.097L409.86 543.049L378.734 535.208Z" fill="#E6E7E8"/>
<path d="M316.245 519.765L308.405 488.639L277.279 480.799L269.438 449.673L238.313 441.832L230.472 410.707L199.346 402.866L191.505 371.74L160.38 363.899L152.539 332.774L121.413 324.933L113.81 293.807L82.4471 285.967L74.8439 254.841L43.4808 247.238L35.8776 215.875L4.5144 208.272L0 189.739V213.974L30.4128 221.34L38.016 252.703L69.3791 260.306L76.9823 291.669L108.346 299.272L115.949 330.398L147.074 338.239L154.915 369.364L186.041 377.205L193.881 408.331L225.007 416.171L232.848 447.297L263.973 455.138L271.814 486.263L302.94 494.104L310.781 525.23L341.906 533.071L344.757 544H351.41L347.371 527.606L316.245 519.765Z" fill="#E6E7E8"/>
</g>
</mask>
<g mask="url(#mask0)">
<rect x="-356.4" width="950.4" height="200" rx="19.2" fill="url(#paint0_linear)"/>
</g>
<defs>
<linearGradient id="paint0_linear" x1="687.999" y1="46.5" x2="206.662" y2="365.258" gradientUnits="userSpaceOnUse">
<stop stop-color="white" stop-opacity="0.62"/>
<stop offset="1" stop-color="white" stop-opacity="0"/>
</linearGradient>
<clipPath id="clip0">
<rect width="594" height="200" fill="white"/>
</clipPath>
</defs>
</svg>
