<?xml version="1.0" encoding="UTF-8"?>
<!DOCTYPE svg PUBLIC "-//W3C//DTD SVG 1.1//EN" "http://www.w3.org/Graphics/SVG/1.1/DTD/svg11.dtd">
<!-- Creator: CorelDRAW -->
<svg xmlns="http://www.w3.org/2000/svg" xml:space="preserve" width="55.925mm" height="80.9176mm" style="shape-rendering:geometricPrecision; text-rendering:geometricPrecision; image-rendering:optimizeQuality; fill-rule:evenodd; clip-rule:evenodd"
viewBox="0 0 149.705 216.607"
 xmlns:xlink="http://www.w3.org/1999/xlink">
 <defs>
  <style type="text/css">
   <![CDATA[
    .fil0 {fill:#070607}
    .fil2 {fill:#92D2EC}
    .fil1 {fill:#A7D8A8}
    .fil3 {fill:#FACA86}
   ]]>
  </style>
 </defs>
 <g id="Layer_x0020_1">
  <metadata id="CorelCorpID_0Corel-Layer"/>
  <g id="_161533320">
   <path id="_164075720" class="fil0" d="M42.336 39.8358c0,-10.9196 14.2801,-8.93197 17.6717,-14.6991 2.3578,-4.00891 1.23779,-8.0237 3.28668,-12.8975 1.22494,-2.91352 5.25741,-6.63734 8.92581,-6.63734l1.86793 0c15.081,0 10.7873,11.2477 14.3955,18.5971 3.49842,7.12561 17.979,4.38206 17.979,15.0144l0 2.48951 -64.1267 0 0 -1.86713z"/>
   <path id="_164075936" class="fil0" d="M19.9227 69.0902l108.953 0 0 34.8566c0,2.08235 -24.8399,25.7324 -28.1866,29.0844 -1.44311,1.44552 -18.5077,36.8128 -18.5077,38.1384l0 1.24475c0,1.43428 0.43312,1.8674 1.86793,1.8674l1.24502 0c2.4796,0 18.9293,-9.22563 23.0357,-10.5815 3.10278,-1.02444 8.34038,-4.30069 11.3543,-5.45416 4.76058,-1.82216 5.68624,-6.0586 9.19136,-6.99444l0 34.8563c0,6.41436 -2.99785,10.5815 -9.33886,10.5815l-90.2756 0c-4.62834,0 -9.33886,-3.88042 -9.33886,-8.0917l0 -119.508z"/>
   <path id="_164075744" class="fil0" d="M149.387 122.963l0 -31.1737 0.189256 -7.60531c-0.154992,-32.892 3.78673,-48.1379 -22.3571,-57.0075 -7.5349,-2.55643 -30.2306,2.60595 -34.1839,-5.66055 -2.74461,-5.73978 0.946815,-7.07956 -4.86524,-15.0537 -2.16855,-2.97536 -8.04833,-6.46174 -12.837,-6.46174l-2.49031 0c-9.52517,0 -12.6274,8.37866 -16.1871,13.6936 0,13.9924 -3.59827,7.97712 -11.2068,13.071 -13.1109,0 -20.9855,-1.222 -30.7117,2.90764 -3.61326,1.53386 -6.81723,4.76888 -9.30406,7.50412 -1.38609,1.52476 -5.43328,9.23151 -5.43328,11.3736l0 143.16c0,12.7345 11.7191,24.8975 24.281,24.8975l102.105 0c6.71122,0 13.9597,-6.22483 17.2742,-10.1173 4.50708,-5.29274 5.76173,-11.9231 5.76147,-21.6268 -0.000267689,-18.2582 0,-36.5162 0,-54.7742l-0.0342642 -7.12641z"/>
   <path id="_161529528" class="fil1" d="M42.336 39.8358l0 1.86713 64.1267 0 0 -2.48951c0,-10.6323 -14.4806,-7.88879 -17.979,-15.0144 -3.60818,-7.34939 0.685551,-18.5971 -14.3955,-18.5971l-1.86793 0c-3.66841,0 -7.70087,3.72382 -8.92581,6.63734 -2.04889,4.87381 -0.92888,8.88861 -3.28668,12.8975 -3.39162,5.76709 -17.6717,3.7795 -17.6717,14.6991z"/>
   <path id="_161529888" class="fil0" d="M29.2616 103.324c0,1.91344 1.82403,2.48977 3.7356,2.48977l46.6943 0c1.91157,0 3.73533,-0.576334 3.73533,-2.48977 0,-1.45703 -1.03274,-2.48977 -2.49004,-2.48977l-49.1849 0c-1.4573,0 -2.49031,1.03274 -2.49031,2.48977z"/>
   <path id="_164076968" class="fil0" d="M29.2616 127.599c0,1.91344 1.82403,2.48977 3.7356,2.48977l46.6943 0c1.91157,0 3.73533,-0.576334 3.73533,-2.48977 0,-1.45703 -1.03274,-2.48977 -2.49004,-2.48977l-49.1849 0c-1.4573,0 -2.49031,1.03274 -2.49031,2.48977z"/>
   <path id="_164076392" class="fil0" d="M29.2616 151.874c0,1.45703 1.03301,2.48977 2.49031,2.48977l49.1849 0c1.4573,0 2.49004,-1.03274 2.49004,-2.48977 0,-1.45703 -1.03274,-2.48977 -2.49004,-2.48977l-49.1849 0c-1.4573,0 -2.49031,1.03274 -2.49031,2.48977z"/>
   <path id="_164076632" class="fil2" d="M83.4268 151.874c0,1.45703 -1.03274,2.48977 -2.49004,2.48977l-49.1849 0c-1.4573,0 -2.49031,-1.03274 -2.49031,-2.48977 0,-1.45703 1.03301,-2.48977 2.49031,-2.48977l49.1849 0c1.4573,0 2.49004,1.03274 2.49004,2.48977zm0 -24.2748c0,1.91344 -1.82376,2.48977 -3.73533,2.48977l-46.6943 0c-1.91157,0 -3.7356,-0.576334 -3.7356,-2.48977 0,-1.45703 1.03301,-2.48977 2.49031,-2.48977l49.1849 0c1.4573,0 2.49004,1.03274 2.49004,2.48977zm0 -24.2751c0,1.91344 -1.82376,2.48977 -3.73533,2.48977l-46.6943 0c-1.91157,0 -3.7356,-0.576334 -3.7356,-2.48977 0,-1.45703 1.03301,-2.48977 2.49031,-2.48977l49.1849 0c1.4573,0 2.49004,1.03274 2.49004,2.48977zm-63.5041 85.2736c0,4.21128 4.71052,8.0917 9.33886,8.0917l90.2756 0c6.34101,0 9.33886,-4.16711 9.33886,-10.5815l0 -34.8563 0 -47.3049 0 -34.8566 -108.953 0 0 119.508z"/>
   <path id="_164075648" class="fil0" d="M37.0181 42.8896l0.33702 1.30338c0,1.45676 1.03301,2.48951 2.49058,2.48951l69.1073 0c1.45757,0 2.49058,-1.03274 2.49058,-2.48951l0 -6.22457c0,-2.88435 -1.1623,-1.87222 -1.24529,-5.60192l14.9421 0c8.97882,0 18.6777,10.3033 18.6777,19.9179l0 36.7237c0,1.90969 -7.70729,8.86665 -9.33859,9.95909l0 -32.9892c-0.711249,-1.06139 -1.35477,-2.48977 -3.11322,-2.48977l-113.934 0c-1.4573,0 -2.49031,1.03274 -2.49031,2.48977l0 123.865c0,4.94582 6.88174,11.8262 11.8292,11.8262l95.2562 0c7.79777,0 9.80142,-7.86951 12.4521,-11.8262l-0.176675 -44.9953 9.51526 -8.53419 0 55.3966c0,10.9083 -9.9599,19.9179 -21.168,19.9179l-94.0112 0c-7.41926,0 -11.6902,-1.13554 -15.7305,-4.81385 -2.73712,-2.49191 -7.92787,-8.59147 -7.92787,-13.2367l0 -143.16c0,-5.93841 6.636,-12.7532 10.8259,-15.3193 6.26606,-3.83705 13.8748,-2.7315 23.0445,-2.79574l-1.83286 10.5874z"/>
   <path id="_161529144" class="fil3" d="M38.851 32.3023c-9.16968,0.0642453 -16.7785,-1.04131 -23.0445,2.79574 -4.18986,2.56606 -10.8259,9.38088 -10.8259,15.3193l0 143.16c0,4.6452 5.19075,10.7448 7.92787,13.2367 4.04023,3.67831 8.3112,4.81385 15.7305,4.81385l94.0112 0c11.2081,0 21.168,-9.0096 21.168,-19.9179l0 -55.3966 -0.0650484 0.0583561 0 -47.0161c0.0417594,-0.128758 0.0650484,-0.245471 0.0650484,-0.34746l0 -36.7237c0,-9.61458 -9.6989,-19.9179 -18.6777,-19.9179l-14.9421 0c0.0829835,3.72971 1.24529,2.71758 1.24529,5.60192l0 6.22457c0,1.45676 -1.03301,2.48951 -2.49058,2.48951l-69.1073 0c-1.45757,0 -2.49058,-1.03274 -2.49058,-2.48951l-0.33702 -1.30338 1.83286 -10.5874zm95.5255 131.323l0.10306 26.2174c-2.65065,3.95671 -4.6543,11.8262 -12.4521,11.8262l-95.2562 0c-4.94742,0 -11.8292,-6.8804 -11.8292,-11.8262l0 -123.865c0,-1.45703 1.03301,-2.48977 2.49031,-2.48977l113.934 0c1.75845,0 2.40197,1.42839 3.11322,2.48977l0 16.2321 -0.304897 0 0 81.4151 0.201837 0z"/>
  </g>
 </g>
</svg>
