<?xml version="1.0" encoding="UTF-8"?>
<!DOCTYPE svg PUBLIC "-//W3C//DTD SVG 1.1//EN" "http://www.w3.org/Graphics/SVG/1.1/DTD/svg11.dtd">
<!-- Creator: CorelDRAW -->
<svg xmlns="http://www.w3.org/2000/svg" xml:space="preserve" width="26.4171mm" height="25.0889mm" style="shape-rendering:geometricPrecision; text-rendering:geometricPrecision; image-rendering:optimizeQuality; fill-rule:evenodd; clip-rule:evenodd"
viewBox="0 0 3.05117 2.89777"
 xmlns:xlink="http://www.w3.org/1999/xlink">
 <defs>
  <style type="text/css">
   <![CDATA[
    .fil0 {fill:#0093DD}
    .fil1 {fill:#DA251D}
   ]]>
  </style>
 </defs>
 <g id="Layer_x0020_1">
  <metadata id="CorelCorpID_0Corel-Layer"/>
  <g id="_178524248">
   <polygon id="_181159576" class="fil0" points="0.383529,0.0170478 0.375005,0.0767035 0.366481,0.144895 0.357957,0.20455 0.349434,0.27273 0.34091,0.332397 0.332386,0.400577 0.323862,0.460233 0.315338,0.528424 0.306826,0.588079 0.298302,0.647735 0.289778,0.715926 0.281254,0.775582 0.27273,0.843762 0.264206,0.903417 0.255682,0.971609 0.247158,1.03126 0.238634,1.09944 0.230122,1.15911 0.221598,1.22729 0.213074,1.28695 0.20455,1.34661 0.196026,1.41479 0.187503,1.47445 0.178979,1.54264 0.170455,1.6023 0.161931,1.67048 0.153407,1.73014 0.144883,1.79832 0.136359,1.85798 0.127835,1.92617 0.119323,1.98583 0.110799,2.04548 0.102275,2.11367 0.0937513,2.17333 0.0852274,2.24151 0.0767035,2.30117 0.0681796,2.36935 0.0596557,2.42901 0.0511318,2.49719 0.0426079,2.55686 0.0340956,2.62504 0.0255717,2.68469 0.0170478,2.74436 0.0085239,2.81254 0,2.87219 0,2.89777 0.869333,2.89777 0.877857,2.88924 0.88637,2.87219 0.894894,2.85516 0.903417,2.83811 0.911941,2.82106 0.920465,2.80402 0.928989,2.78697 0.937513,2.76993 0.946037,2.74436 0.954561,2.72731 0.963085,2.71026 0.971597,2.69322 0.980121,2.67617 0.988645,2.65913 0.997169,2.64208 1.00569,2.62504 1.01422,2.60799 1.02274,2.59094 1.03126,2.5739 1.03979,2.54833 1.04831,2.53129 1.05684,2.51424 1.06535,2.49719 1.07387,2.48015 1.0824,2.46311 1.09092,2.44606 1.09944,2.42901 1.10797,2.41196 1.11649,2.39491 1.12502,2.37788 1.13354,2.36083 1.14206,2.33526 1.15059,2.31821 1.1591,2.30117 1.16762,2.28413 1.17615,2.26708 1.18467,2.25003 1.18467,2.23298 0.851004,2.23256 0.86081,2.21594 0.869333,2.14776 0.877857,2.0881 0.88637,2.02843 0.894894,1.96025 0.903417,1.9006 0.911941,1.83242 0.920465,1.77275 0.928989,1.70457 0.928989,1.67048 1.4574,1.67048 1.46593,1.66195 1.47445,1.64492 1.48297,1.62787 1.4915,1.61082 1.50002,1.59377 1.50854,1.57672 1.51707,1.55968 1.52559,1.53412 1.5341,1.51707 1.54263,1.50002 1.55115,1.48297 1.55968,1.46594 1.5682,1.44889 1.57672,1.43184 1.58525,1.41479 1.59377,1.39775 1.6023,1.3807 1.61082,1.36366 1.61933,1.33809 1.62786,1.32104 1.63638,1.30399 1.6449,1.28695 1.65343,1.26991 1.66195,1.25286 1.67048,1.23581 1.679,1.21877 1.68752,1.20172 1.69605,1.18468 1.70457,1.16764 1.71308,1.14206 1.72161,1.12502 1.73013,1.10797 1.73866,1.09092 1.73866,1.07388 1.01323,1.07384 1.02274,1.0057 1.03126,0.946037 1.03979,0.877857 1.04831,0.81819 1.05684,0.75001 1.06535,0.690355 1.06535,0.622175 1.96025,0.622175 1.96878,0.613651 1.9773,0.596603 1.98583,0.579556 1.99435,0.562508 2.00286,0.54546 2.01139,0.5199 2.01991,0.502852 2.02843,0.485804 2.03696,0.468757 2.04548,0.451709 2.054,0.434661 2.06253,0.417625 2.07105,0.400577 2.07956,0.383529 2.08809,0.366481 2.09661,0.349445 2.10514,0.323873 2.11366,0.306826 2.12218,0.289778 2.13071,0.27273 2.13923,0.255682 2.14776,0.238646 2.15628,0.221598 2.1648,0.20455 2.17333,0.187503 2.18184,0.170455 2.19036,0.153419 2.19889,0.136371 2.20741,0.110799 2.21594,0.0937513 2.22446,0.0767035 2.23298,0.0596673 2.24151,0.0426195 2.25003,0.0255717 2.25856,0.0085239 2.25856,0 0.392053,0 "/>
   <polygon id="_181159000" class="fil1" points="2.49719,0.0085239 2.48867,0.0255717 2.48014,0.0426195 2.47162,0.0596673 2.46309,0.0767035 2.45458,0.102275 2.44606,0.119323 2.43753,0.136371 2.42901,0.153419 2.42049,0.170455 2.41196,0.187503 2.40344,0.20455 2.39491,0.221598 2.38639,0.238646 2.37787,0.255682 2.36934,0.27273 2.36082,0.298302 2.35231,0.315349 2.34378,0.332397 2.33526,0.349445 2.32673,0.366481 2.31821,0.383529 2.30969,0.400577 2.30116,0.417625 2.29264,0.434661 2.28412,0.451709 2.27559,0.468757 2.26708,0.494328 2.25856,0.511376 2.25003,0.528424 2.24151,0.54546 2.23298,0.562508 2.22446,0.579556 2.21594,0.596603 2.20741,0.613651 2.20741,0.639211 2.21594,0.647735 2.22446,0.656259 2.23298,0.664783 2.24151,0.681831 2.25003,0.690355 2.25856,0.707402 2.26708,0.732963 2.26708,0.877857 2.25856,0.920465 2.25003,0.946037 2.24151,0.963085 2.23298,0.980132 2.22446,0.99718 2.21594,1.01422 2.20741,1.02274 2.19889,1.03126 2.19036,1.03979 2.18184,1.04831 2.17333,1.05684 2.1648,1.06536 2.15628,1.07388 2.13923,1.08241 2.12218,1.09092 2.10514,1.09944 2.07956,1.10797 2.03696,1.11649 1.96878,1.12502 1.96025,1.13354 1.95173,1.15059 1.94321,1.16764 1.93468,1.18468 1.92616,1.20172 1.91763,1.21877 1.90911,1.23581 1.90059,1.25286 1.89206,1.26991 1.88355,1.28695 1.87503,1.31252 1.8665,1.32957 1.85798,1.34661 1.84945,1.36366 1.84093,1.3807 1.83241,1.39775 1.82388,1.41479 1.81536,1.43184 1.80685,1.44889 1.79832,1.46594 1.7898,1.48297 1.78127,1.50002 1.77275,1.52559 1.76423,1.54264 1.7557,1.55968 1.74718,1.57672 1.73866,1.59377 1.73013,1.61082 1.72161,1.62787 1.71308,1.64492 1.70457,1.66195 1.70457,1.68752 1.9773,1.69605 2.03696,1.70457 2.07105,1.7131 2.09661,1.72162 2.11366,1.73014 2.13071,1.73867 2.14776,1.74718 2.15628,1.7557 2.1648,1.76423 2.17333,1.77275 2.18184,1.7898 2.19036,1.79832 2.19889,1.81537 2.20741,1.83242 2.21594,1.8665 2.21594,1.98583 2.20741,2.01991 2.19889,2.04548 2.19036,2.07105 2.18184,2.0881 2.17333,2.10515 2.1648,2.1222 2.15628,2.13071 2.14776,2.14776 2.13923,2.15628 2.13071,2.1648 2.12218,2.17333 2.11366,2.18185 2.10514,2.19038 2.08809,2.1989 2.07956,2.20741 2.06253,2.21594 2.04548,2.22446 2.02843,2.23298 2.00286,2.24151 1.96878,2.25003 1.90911,2.25856 1.41479,2.26708 1.40627,2.28413 1.39775,2.30969 1.38922,2.32673 1.3807,2.34378 1.37217,2.36083 1.36365,2.37788 1.35513,2.39491 1.34661,2.41196 1.33809,2.42901 1.32957,2.44606 1.32104,2.46311 1.31252,2.48015 1.30399,2.50571 1.29547,2.52276 1.28695,2.53981 1.27842,2.55686 1.2699,2.5739 1.26137,2.59094 1.25285,2.60799 1.24433,2.62504 1.23581,2.64208 1.22729,2.65913 1.21877,2.67617 1.21024,2.69322 1.20172,2.71879 1.1932,2.73584 1.18467,2.75288 1.17615,2.76993 1.16762,2.78697 1.1591,2.80402 1.15059,2.82106 1.14206,2.83811 1.13354,2.85516 1.12502,2.87219 1.12502,2.89777 1.96025,2.89777 2.04548,2.88924 2.10514,2.88072 2.1648,2.87219 2.23298,2.86367 2.28412,2.85516 2.32673,2.84663 2.36082,2.83811 2.39491,2.82959 2.42901,2.82106 2.44606,2.81254 2.47162,2.80402 2.49719,2.79549 2.51424,2.78697 2.53129,2.77844 2.5398,2.76993 2.55685,2.76141 2.57389,2.75288 2.58242,2.74436 2.59946,2.73584 2.60799,2.72731 2.61651,2.71879 2.62504,2.71026 2.64208,2.70174 2.6506,2.69322 2.65912,2.68469 2.66764,2.67617 2.67617,2.66764 2.68469,2.65913 2.69322,2.65061 2.70174,2.64208 2.71026,2.63356 2.71879,2.62504 2.72731,2.61651 2.73582,2.60799 2.74435,2.59946 2.75287,2.59094 2.7614,2.58243 2.76992,2.56538 2.77844,2.55686 2.78697,2.54833 2.79549,2.53129 2.80402,2.52276 2.81254,2.51424 2.82106,2.49719 2.82958,2.48867 2.8381,2.47163 2.84662,2.45458 2.85515,2.44606 2.86367,2.42901 2.87219,2.41196 2.88072,2.39491 2.88924,2.37788 2.89777,2.36083 2.90629,2.33526 2.91481,2.31821 2.92333,2.29265 2.93185,2.26708 2.94037,2.24151 2.9489,2.20741 2.95742,2.18185 2.96595,2.13923 2.97447,2.0881 2.98299,2.0114 2.98299,1.84945 2.97447,1.78127 2.96595,1.74718 2.95742,1.7131 2.9489,1.68752 2.94037,1.66195 2.93185,1.64492 2.92333,1.62787 2.91481,1.61082 2.90629,1.59377 2.89777,1.57672 2.88924,1.5682 2.88072,1.55115 2.87219,1.54264 2.86367,1.53412 2.85515,1.52559 2.84662,1.51707 2.8381,1.50854 2.82958,1.50002 2.82106,1.4915 2.81254,1.48297 2.80402,1.47445 2.79549,1.46594 2.78697,1.45741 2.76992,1.44889 2.7614,1.44037 2.74435,1.43184 2.73582,1.42332 2.71879,1.41479 2.70174,1.40627 2.69322,1.39775 2.67617,1.38922 2.6506,1.3807 2.63356,1.37217 2.60799,1.36366 2.58242,1.35514 2.59094,1.34661 2.61651,1.33809 2.63356,1.32957 2.6506,1.32104 2.66764,1.31252 2.67617,1.30399 2.69322,1.29547 2.71026,1.28695 2.71879,1.27843 2.73582,1.26991 2.74435,1.26139 2.75287,1.25286 2.76992,1.24434 2.77844,1.23581 2.78697,1.22729 2.79549,1.21877 2.80402,1.21024 2.81254,1.20172 2.82106,1.1932 2.82958,1.18468 2.8381,1.17616 2.84662,1.16764 2.85515,1.15911 2.86367,1.15059 2.87219,1.14206 2.88072,1.12502 2.88924,1.11649 2.89777,1.10797 2.90629,1.09092 2.91481,1.08241 2.92333,1.06536 2.93185,1.04831 2.94037,1.03979 2.9489,1.02274 2.95742,1.0057 2.96595,0.988656 2.97447,0.971609 2.98299,0.954561 2.99152,0.928989 3.00004,0.911941 3.00855,0.886381 3.01708,0.852286 3.0256,0.81819 3.03413,0.784106 3.04265,0.732963 3.05117,0.656259 3.05117,0.54546 3.04265,0.47728 3.03413,0.434661 3.0256,0.400577 3.01708,0.375005 3.00855,0.349445 3.00004,0.332397 2.99152,0.315349 2.98299,0.298302 2.97447,0.281254 2.96595,0.264206 2.95742,0.24717 2.9489,0.238646 2.94037,0.230122 2.93185,0.213074 2.92333,0.20455 2.91481,0.196026 2.90629,0.178979 2.89777,0.170455 2.88924,0.161942 2.88072,0.153419 2.87219,0.144895 2.86367,0.136371 2.85515,0.127847 2.8381,0.119323 2.82958,0.110799 2.82106,0.102275 2.80402,0.0937513 2.79549,0.0852274 2.77844,0.0767035 2.7614,0.0681912 2.74435,0.0596673 2.72731,0.0511434 2.71026,0.0426195 2.68469,0.0340956 2.65912,0.0255717 2.62504,0.0170478 2.59094,0.0085239 2.53129,0 2.50571,0 "/>
  </g>
 </g>
</svg>
