<?xml version="1.0" encoding="UTF-8"?>
<!DOCTYPE svg PUBLIC "-//W3C//DTD SVG 1.1//EN" "http://www.w3.org/Graphics/SVG/1.1/DTD/svg11.dtd">
<!-- Creator: CorelDRAW -->
<svg xmlns="http://www.w3.org/2000/svg" xml:space="preserve" width="117.483mm" height="94.6474mm" style="shape-rendering:geometricPrecision; text-rendering:geometricPrecision; image-rendering:optimizeQuality; fill-rule:evenodd; clip-rule:evenodd"
viewBox="0 0 48.1307 38.7753"
 xmlns:xlink="http://www.w3.org/1999/xlink">
 <defs>
  <style type="text/css">
   <![CDATA[
    .fil39 {fill:#050506}
    .fil40 {fill:#134057}
    .fil36 {fill:#154862}
    .fil38 {fill:#154964}
    .fil41 {fill:#164B66}
    .fil34 {fill:#2589BC}
    .fil37 {fill:#268EC3}
    .fil35 {fill:#268FC5}
    .fil22 {fill:#2E93D0}
    .fil7 {fill:#342C2A}
    .fil8 {fill:#363636}
    .fil15 {fill:#474646}
    .fil16 {fill:#4A342F}
    .fil31 {fill:#5B7877}
    .fil13 {fill:#5FA265}
    .fil4 {fill:#635444}
    .fil17 {fill:#63C4D1}
    .fil30 {fill:#6B7B83}
    .fil24 {fill:#74838A}
    .fil20 {fill:#758AA9}
    .fil19 {fill:#8A7670}
    .fil9 {fill:#97A8B1}
    .fil14 {fill:#A8CA29}
    .fil32 {fill:#ABCD23}
    .fil27 {fill:#AD4D88}
    .fil23 {fill:#B14A87}
    .fil25 {fill:#B1D02D}
    .fil26 {fill:#B6CBD9}
    .fil2 {fill:#B8CEDB}
    .fil6 {fill:#CFB090}
    .fil29 {fill:#D2CDE6}
    .fil3 {fill:#E65F67}
    .fil21 {fill:#EAEBEB}
    .fil1 {fill:#EEEEEE}
    .fil28 {fill:#EEF0EE}
    .fil33 {fill:#F0CD0D}
    .fil18 {fill:#F3CF95}
    .fil5 {fill:#F5D5A9}
    .fil0 {fill:whitesmoke}
    .fil11 {fill:#FBCE01}
    .fil12 {fill:#FBDDB6}
    .fil10 {fill:#FDD100}
   ]]>
  </style>
 </defs>
 <g id="Layer_x0020_1">
  <metadata id="CorelCorpID_0Corel-Layer"/>
  <g id="_161520024">
   <path id="_394832344" class="fil0" d="M42.2179 6.91076l0.866067 0.00340036 0 -0.280304c0,-0.2869 -0.0865657,-0.560608 -0.373835,-0.560608l-0.377358 -0.00045065 -0.114875 0.837963z"/>
   <polygon id="_164053472" class="fil1" points="42.2429,7.94193 43.084,7.94193 43.084,7.38136 42.2429,7.38136 "/>
   <g>
    <path id="_164076464" class="fil2" d="M6.44855 7.00756l4.9533 0c0.0488341,-0.209511 0.0934074,-0.214796 0.0934074,-0.467119l0 -0.467201c0,-1.76499 -1.96258,-2.25899 -1.96258,-2.52274l0 -3.27024 1.02806 0 0 -0.280263 -3.27106 0 0 0.280263 0.934566 0 0 3.45714c-1.04157,0.242614 -2.48075,1.80108 -1.77568,3.27016z"/>
    <path id="_394834192" class="fil3" d="M11.4019 7.00756l-4.9533 0c0.0744801,0.894376 1.33118,1.86868 2.33646,1.86868l0.280386 0c1.04571,0 2.13596,-1.00823 2.33646,-1.86868z"/>
   </g>
   <path id="_164077040" class="fil4" d="M28.5981 10.4647l0.467283 0.280304c-0.0156089,-0.700638 -0.467283,-0.258222 -0.467283,-1.02777 0,-0.314881 0.165143,-0.654057 0.467283,-0.654057l0.0934484 0c0.252405,0 0.257731,0.0446143 0.494281,0.102298l-0.213895 0.738615 0.467283 0c0.187184,0 0.368632,-0.241016 0.841118,-0.280304l0.186938 -0.46716 0.186938 -0.747505c0.597193,0 0.711167,0.186897 1.30836,0.186897l1.20369 0.000655491 0.104715 0.65336c0.356341,-0.0830015 0.934566,-0.355071 0.934566,-0.747464l0 -0.467201 -0.103158 0.0109795 -0.0837389 -1.50587c-0.0636645,-0.600184 -0.609238,-1.16427 -1.21495,-1.21467l-0.934566 0.186856c-0.336758,-0.225448 -0.425823,-0.467201 -1.02806,-0.467201 -0.669215,0 -0.742917,0.307179 -1.12146,0.560649l-1.02806 0c-0.845993,0.566344 -0.934525,0.599528 -0.934525,1.96209 -0.102789,0.153467 -0.560772,0.643733 -0.560772,0.840913 0,0.613335 0.134499,0.728824 0.447331,1.04776 0.2742,0.279608 0.316725,0.652623 0.487234,1.00782z"/>
   <path id="_164053688" class="fil5" d="M30.9345 9.15659l0.65418 0.373712c0.138431,-0.261582 0.150517,-0.373712 0.560772,-0.373712l0.186897 0c0.382356,0 0.529759,0.0946365 0.556061,0.453149l-0.182226 0.10746c0.461302,0.010283 0.457041,0.00594039 0.467242,0.467201l0.373876 0 0 -0.467201 0.280386 0 -0.0934894 -0.467201 -0.104715 -0.65336 -1.20369 -0.000655491c-0.597193,0 -0.711167,-0.186897 -1.30836,-0.186897l-0.186938 0.747505z"/>
   <path id="_164053496" class="fil4" d="M31.9625 9.9975c0,0.218729 0.155065,0.373712 0.373835,0.373712 0.310826,0 0.273708,-0.167724 0.280386,-0.46716 -0.250602,-0.0599774 -0.176204,-0.0934484 -0.373876,-0.0934484 -0.152934,0 -0.280345,0.0559625 -0.280345,0.186897z"/>
   <path id="_164053304" class="fil6" d="M32.3364 10.3712c-0.21877,0 -0.373835,-0.154983 -0.373835,-0.373712 0,-0.130934 0.127411,-0.186897 0.280345,-0.186897 0.197671,0 0.123273,0.033471 0.373876,0.0934484 -0.00667781,0.299436 0.0304394,0.46716 -0.280386,0.46716zm-1.58879 -0.747464l0.68253 0.193206 -0.216312 1.02654 1.57916 0.271373 0.19763 -0.650206 0.467283 0 0 0.280304 0.373835 -1.02777 -0.280386 0 0 0.467201 -0.373876 0c-0.0102011,-0.461261 -0.00594039,-0.456918 -0.467242,-0.467201l0.182226 -0.10746c-0.0263016,-0.358512 -0.173705,-0.453149 -0.556061,-0.453149l-0.186897 0c-0.410255,0 -0.422341,0.11213 -0.560772,0.373712l-0.65418 -0.373712 -0.186938 0.46716z"/>
   <path id="_164053160" class="fil7" d="M16.8224 11.3056l2.42986 -0.186856c0.233805,0.487194 0.611573,1.40152 1.3084,1.40152 0.186241,0 0.239992,-0.387231 0.280386,-0.560608 0.984875,0.021918 0.0737837,1.61009 0.747669,2.6161l0.280345 0.0934484 0.231757 -0.042443 0.515912 -0.611573c-0.0274487,-1.23335 -0.163463,-2.85339 -0.560035,-3.7381 -0.181407,-0.404766 -0.521443,-1.01966 -0.973486,-1.1757 -0.790891,-0.273053 -0.468963,-0.69228 -1.45707,-0.69228l-0.841199 0c-1.70186,0 -2.61676,1.08029 -2.61303,2.78297l0.650493 0.113523z"/>
   <path id="_164052584" class="fil8" d="M17.3831 12.053c0.292308,-0.0243351 0.332006,-0.0934074 0.654221,-0.0934074l0.467283 0c-0.0555938,-0.2082 -0.0217951,-0.280304 -0.280345,-0.280304l-0.280427 0c-0.378915,0 -0.484039,0.0864428 -0.560731,0.373712z"/>
   <path id="_161529912" class="fil5" d="M28.5981 10.4647l0.391246 1.22134 -0.110901 0.273626c0.182841,0.380881 0.314718,1.12118 0.841159,1.12118l0.0934484 0c0.265228,0 0.359373,-0.267031 0.65418,-0.373712 0.384036,0.0319142 0.208774,0.0934074 0.560772,0.0934074 0.696541,0 1.05829,-0.205906 1.49632,-0.466136 0.0537912,-0.0319142 1.02703,-0.910436 1.02703,-0.935344 0,-0.322133 -0.0691133,-0.36179 -0.0934484,-0.654057l0 -0.280304 -0.467283 0 -0.19763 0.650206 -1.57916 -0.271373 0.216312 -1.02654 -0.68253 -0.193206c-0.472486,0.0392885 -0.653934,0.280304 -0.841118,0.280304l-0.467283 0 0.213895 -0.738615c-0.23655,-0.0576832 -0.241876,-0.102298 -0.494281,-0.102298l-0.0934484 0c-0.30214,0 -0.467283,0.339176 -0.467283,0.654057 0,0.769546 0.451674,0.327131 0.467283,1.02777l-0.467283 -0.280304z"/>
   <path id="_169343752" class="fil8" d="M17.6635 12.3333c0.00667781,0.299436 -0.0304394,0.46716 0.280345,0.46716l0.0934894 0c0.152934,0 0.280386,-0.0559216 0.280386,-0.186897 0,-0.180424 -0.166659,-0.373671 -0.280386,-0.373671 -0.0235977,0 -0.343928,0.0818134 -0.373835,0.0934074z"/>
   <path id="_169343344" class="fil9" d="M3.64486 11.8662l-0.0207709 0.096521 0.0761598 0.78577 -1.61456 1.17935 0.122864 0.169813 1.71665 -1.20369c0.217746,0.145765 0.48789,0.373753 0.841159,0.373753l0.280345 0c0.561428,0 1.1215,-0.559912 1.1215,-1.12118l0 -0.373753c0,-0.592359 -0.595472,-1.02781 -1.21495,-1.02781l-0.373835 0c-0.381086,0 -0.934566,0.647789 -0.934566,1.12122z"/>
   <path id="_169343464" class="fil10" d="M21.8691 2.05558c-0.818831,0.0182308 -3.09519,1.22143 -3.70106,1.62562 -0.904495,0.60342 -2.14624,1.68912 -2.7851,2.54134 -1.41795,1.89146 -2.95303,4.45033 -2.95303,7.69923l0 0.186856c0,1.68887 0.286982,3.38307 0.735625,4.59028 0.256911,0.691174 1.78097,3.45771 1.74098,3.49176l-0.280386 0.280345 0.0664913 0.0885322 0.479041 -0.255887 2.21146 2.64331 3.27106 1.49501 0.280345 -0.373753c-0.256338,-0.403946 -0.11,-1.50787 -0.224628,-2.11211 -0.21369,-1.1265 0.421726,-0.784377 1.53303,-0.784377 0,-1.5833 0.700761,-2.5091 1.96262,-2.80304l0.0934484 -0.186856c-0.460892,-0.221105 -1.4953,-0.820838 -1.4953,-1.40152l0 -0.280263 -0.186938 0 0 1.12118 -0.467283 0c-0.0498992,0.2141 -0.254822,0.654057 -0.467324,0.654057 -0.70199,0 -1.07394,-0.280304 -1.86913,-0.280304 -0.159366,0.39481 -1.97352,0.467201 -2.52335,0.467201l-2.80374 0c-0.277559,0 -0.636563,-1.31459 -0.747669,-1.58842 -0.128517,-0.316725 -0.630705,-1.3998 -0.654221,-1.68178l2.99068 0c0.444628,0 0.916704,1.81333 1.21495,2.24239l1.3937 -0.373876 0.101601 -1.30791c0.0331842,-1.48829 0.449953,-1.75311 1.02806,-2.61619l-0.467283 0 -0.280345 0c-1.27571,0 -1.4279,-0.903635 -2.24297,-1.12122l0 -1.68183 -0.280427 0 0 -0.186815 0.280427 0 0 -0.654098 0 -0.186856 -0.650493 -0.113523c-0.0037281,-1.70268 0.911173,-2.78297 2.61303,-2.78297l0.841199 0c0.988111,0 0.666183,0.419227 1.45707,0.69228 0.452043,0.156048 0.792079,0.770939 0.973486,1.1757 0.396572,0.884708 0.532586,2.50475 0.560035,3.7381l-0.515912 0.611573 -0.231757 0.042443 0.373835 0.373753c0.561264,-0.645535 0.83063,-1.49493 2.14952,-1.49493l0.747669 0c1.02937,0 1.46006,0.441842 2.05607,0.840913l0.186897 -0.840913c0.546393,-1.13842 0.501901,-0.9233 1.49534,-1.58838l0.110901 -0.273626 -0.391246 -1.22134c-0.17051,-0.355194 -0.213034,-0.728209 -0.487234,-1.00782 -0.312833,-0.318937 -0.447331,-0.434427 -0.447331,-1.04776 0,-0.19718 0.457983,-0.687446 0.560772,-0.840913 0,-1.36256 0.0885322,-1.39574 0.934525,-1.96209l1.02806 0c0.378546,-0.25347 0.452248,-0.560649 1.12146,-0.560649 0.602232,0 0.691297,0.241753 1.02806,0.467201l0.934566 -0.186856 -0.535741 -0.555815 0.0684578 -0.471994c-1.65106,-1.10528 -4.00026,-2.33584 -6.72898,-2.33584l-1.96258 0c-0.756191,0 -1.80047,0.697237 -2.24301,0.0934484z"/>
   <path id="_169343632" class="fil11" d="M21.8691 2.05558c0.442538,0.603789 1.48682,-0.0934484 2.24301,-0.0934484l1.96258 0c2.72873,0 5.07792,1.23056 6.72898,2.33584l-0.0684578 0.471994 0.535741 0.555815c0.605714,0.0503909 1.15129,0.614482 1.21495,1.21467l0.0837389 1.50587 0.103158 -0.0109795 0 0.467201c0,0.392393 -0.578225,0.664463 -0.934566,0.747464l0.0934894 0.467201 -0.373835 1.02777c0.0243351,0.292267 0.0934484,0.331924 0.0934484,0.654057 0,0.0249086 -0.97324,0.90343 -1.02703,0.935344 -0.438032,0.26023 -0.799781,0.466136 -1.49632,0.466136 -0.351999,0 -0.176737,-0.0614932 -0.560772,-0.0934074 0.364699,0.688962 0.572366,0.259656 0.78663,1.36252 0.1075,0.553439 0.293209,1.40713 0.334874,1.90768l0.0260558 0.761516 1.37583 0.546556c0.371417,-0.427216 0.871434,-2.33584 1.21495,-2.33584l3.17753 0c-0.0481376,0.578307 -0.466218,1.28206 -0.640947,1.78847 -0.136588,0.395916 -0.508907,1.57519 -0.760902,1.57519l-2.80378 0c-0.590187,0 -2.63577,-0.0512922 -2.8037,-0.467201l-1.58879 0.186897 -0.280345 0c-0.340978,0 -0.472773,-0.445365 -0.654221,-0.654098l-0.280386 0 0 0.186938 0.122003 0.407388 -0.495838 0.340077c-0.0341265,1.53303 -1.45785,1.56535 -1.58875,2.0555 1.30295,0.108443 2.05607,1.31418 2.05607,2.80304l1.59993 0.0009013 -0.198081 2.989 0.186938 0.654057 -1.40189 0 -5.79437 0 -0.467283 0.0934074 5.42054 2.05558c0.501696,-0.0111843 4.53653,-1.95291 4.95326,-2.24239 0.238803,-1.02478 3.1321,-3.9413 3.88796,-5.08276 1.15092,-1.73807 2.1868,-3.9427 2.1868,-6.78343l0.0207709 -1.49808 -0.11426 -0.837758c0,-1.12458 -0.972912,-3.54096 -1.40455,-4.29531 -0.757461,-1.3238 -1.44609,-2.14599 -2.49738,-3.20273 -1.55564,-1.56371 -4.89701,-3.43379 -7.9672,-3.43379l-1.22614 -0.0766924 -2.97945 0.543852z"/>
   <path id="_169343968" class="fil12" d="M18.3177 12.6136c0,0.130975 -0.127452,0.186897 -0.280386,0.186897l-0.0934894 0c-0.310785,0 -0.273667,-0.167724 -0.280345,-0.46716 0.0299068,-0.011594 0.350237,-0.0934074 0.373835,-0.0934074 0.113728,0 0.280386,0.193247 0.280386,0.373671zm-0.934607 -0.560568c0.0766924,-0.287269 0.181817,-0.373712 0.560731,-0.373712l0.280427 0c0.25855,0 0.224751,0.072104 0.280345,0.280304l-0.467283 0c-0.322215,0 -0.361913,0.0690723 -0.654221,0.0934074zm-0.56069 -0.747464l0 0.186856 0 0.654098 -0.280427 0 0 0.186815 0.280427 0 0 1.68183c0.815062,0.217582 0.967259,1.12122 2.24297,1.12122l0.280345 0 0.467283 0c0.417916,0.151254 0.0716533,0.280263 0.467283,0.280263l0.280386 0c0.340364,0 0.645085,-0.617513 0.654917,-1.02887l0.373138 0.187962c-0.673885,-1.00601 0.237206,-2.59419 -0.747669,-2.6161 -0.0403946,0.173377 -0.0941449,0.560608 -0.280386,0.560608 -0.696828,0 -1.0746,-0.914328 -1.3084,-1.40152l-2.42986 0.186856z"/>
   <path id="_169343584" class="fil13" d="M27.3831 13.548l-0.186897 0.840913c0.299518,1.28509 0.373835,1.24064 0.373835,2.98986l0.280386 0c-0.0339626,-0.408043 -0.186897,-0.59539 -0.186897,-1.02773 0,-0.184562 0.943989,-0.373753 1.21491,-0.373753 0,-0.611532 -0.406732,-2.52274 -0.934566,-2.52274l-0.0934484 0c-0.252446,0 -0.25769,0.0446143 -0.467324,0.0934484z"/>
   <path id="_169343824" class="fil7" d="M22.2429 15.0429l0 2.42933 0.36265 0.840052 0.123355 -1.75573 0.168215 -0.205537c2.79477,0 1.88691,0.32836 3.7383,-1.02781l0 1.12122c0.577856,0.386862 0.654221,0.733003 0.71596,1.70837l0.218606 -0.587115 0 -0.186938c0,-1.74922 -0.0743163,-1.70477 -0.373835,-2.98986 -0.596005,-0.399071 -1.0267,-0.840913 -2.05607,-0.840913l-0.747669 0c-1.31889,0 -1.58825,0.849393 -2.14952,1.49493z"/>
   <path id="_169343272" class="fil14" d="M27.3831 13.548c0.209634,-0.0488341 0.214878,-0.0934484 0.467324,-0.0934484l0.0934484 0c0.527834,0 0.934566,1.91121 0.934566,2.52274l0.186938 0.934361 0.656023 -0.0219589 1.60812 0.112703 -0.114629 -1.02511 0.373835 0c-0.0416646,-0.500549 -0.227373,-1.35424 -0.334874,-1.90768 -0.214264,-1.10286 -0.421931,-0.673558 -0.78663,-1.36252 -0.294807,0.106681 -0.388952,0.373712 -0.65418,0.373712l-0.0934484 0c-0.526441,0 -0.658318,-0.740295 -0.841159,-1.12118 -0.993437,0.665077 -0.948946,0.449953 -1.49534,1.58838z"/>
   <path id="_169343440" class="fil15" d="M25.6074 17.2854l0.373794 0c0.405298,0 0.288498,0.148673 0.74771,0.186897 -0.0390427,-0.356505 -0.285425,-0.467201 -0.654262,-0.467201l-0.467242 0 0 0.280304z"/>
   <path id="_169343416" class="fil16" d="M23.084 17.4723c0.550448,-0.0458024 0.194927,-0.186897 0.560731,-0.186897l0.280427 0c0.25855,0 0.224751,-0.072063 0.280345,-0.280304 -0.580396,0 -1.07812,-0.0539961 -1.1215,0.467201z"/>
   <path id="_169343224" class="fil17" d="M19.813 15.1364c-0.578102,0.863076 -0.994871,1.12789 -1.02806,2.61619l0 0.46716 0.286695 0.000819363 -0.0997575 0.933501 2.14882 -0.000163873 0.190338 -0.864551 1.1188 0.11721c-0.176901,-0.26404 -0.444669,-0.528162 -0.186938,-0.934279l0 -2.42933 -0.373835 -0.373753 -0.280345 -0.0934484 -0.373138 -0.187962c-0.00983236,0.411361 -0.314554,1.02887 -0.654917,1.02887l-0.280386 0c-0.39563,0 -0.0493666,-0.129009 -0.467283,-0.280263z"/>
   <path id="_169343488" class="fil18" d="M27.8504 17.3788c0.181448,0.208733 0.313243,0.654098 0.654221,0.654098l0.280345 0 1.58879 -0.186897c0.703546,-0.446266 2.1401,0.756068 2.61684,-0.560608l-1.37583 -0.546556 -0.0260558 -0.761516 -0.373835 0 0.114629 1.02511 -1.60812 -0.112703 -0.656023 0.0219589 -0.186938 -0.934361c-0.270923,0 -1.21491,0.189191 -1.21491,0.373753 0,0.432337 0.152934,0.619685 0.186897,1.02773z"/>
   <path id="_169343536" class="fil19" d="M32.9906 17.2854c-0.476747,1.31668 -1.9133,0.114342 -2.61684,0.560608 0.167929,0.415909 2.21351,0.467201 2.8037,0.467201l2.80378 0c0.251995,0 0.624314,-1.17927 0.760902,-1.57519 0.174729,-0.506408 0.592809,-1.21016 0.640947,-1.78847l-3.17753 0c-0.343518,0 -0.843535,1.90863 -1.21495,2.33584z"/>
   <path id="_169343560" class="fil8" d="M23.4579 17.9394l0 0.0934484c0,0.215247 0.0650165,0.280304 0.280345,0.280304 0.215288,0 0.280386,-0.0650575 0.280386,-0.280304l0 -0.0934484c0,-0.215288 -0.0650984,-0.280304 -0.280386,-0.280304 -0.215329,0 -0.280345,0.0650165 -0.280345,0.280304z"/>
   <path id="_169343920" class="fil16" d="M25.7009 17.9394c0,0.214018 0.0316684,0.108648 0.0934484,0.373753 0.261787,-0.00585845 0.560772,-0.048957 0.560772,-0.280304 0,-0.180506 -0.166659,-0.373753 -0.280427,-0.373753 -0.180465,0 -0.373794,0.166577 -0.373794,0.280304z"/>
   <path id="_169343608" class="fil12" d="M24.0187 18.0329c0,0.215247 -0.0650984,0.280304 -0.280386,0.280304 -0.215329,0 -0.280345,-0.0650575 -0.280345,-0.280304l0 -0.0934484c0,-0.215288 0.0650165,-0.280304 0.280345,-0.280304 0.215288,0 0.280386,0.0650165 0.280386,0.280304l0 0.0934484zm2.33646 0c0,0.231347 -0.298986,0.274446 -0.560772,0.280304 -0.06178,-0.265105 -0.0934484,-0.159735 -0.0934484,-0.373753 0,-0.113728 0.193329,-0.280304 0.373794,-0.280304 0.113769,0 0.280427,0.193247 0.280427,0.373753zm-0.373876 -0.747505l-0.373794 0 0 -0.280304 0.467242 0c0.368836,0 0.615219,0.110696 0.654262,0.467201 -0.459212,-0.0382233 -0.342412,-0.186897 -0.74771,-0.186897zm-2.89719 0.186897c0.0433853,-0.521197 0.541108,-0.467201 1.1215,-0.467201 -0.0555938,0.208241 -0.0217951,0.280304 -0.280345,0.280304l-0.280427 0c-0.365805,0 -0.010283,0.141094 -0.560731,0.186897zm-0.841118 0c-0.257731,0.406117 0.0100372,0.670239 0.186938,0.934279l-1.1188 -0.11721 -0.190338 0.864551 -2.14882 0.000163873 0.0997575 -0.933501 -0.286695 -0.000819363 0 -0.46716 -0.101601 1.30791 -1.3937 0.373876 0.0934484 0.46716c0.459171,0.0382233 0.342371,0.186897 0.74771,0.186897l0.0934484 0c0.138759,0 0.412304,-0.201809 0.55815,-0.255887l1.0306 0.162439c0.795192,0 1.16714,0.280304 1.86913,0.280304 0.212502,0 0.417425,-0.439957 0.467324,-0.654057l0.467283 0 0 -1.12118 0.186938 0 0 0.280263c0,0.580683 1.03441,1.18042 1.4953,1.40152l-0.0934484 0.186856 0 0.0934894 0.0934484 0.654016c0.202465,0.135523 0.311112,0.280304 0.654221,0.280304l0.0934484 0c0.258263,0 0.451592,-0.304189 0.560772,-0.46716l0 -0.46716 0 -0.0934894c0.130893,-0.490143 1.55462,-0.522467 1.58875,-2.0555l0.495838 -0.340077 -0.122003 -0.407388 -0.218606 0.587115c-0.061739,-0.97537 -0.138104,-1.32151 -0.71596,-1.70837l0 -1.12122c-1.85139,1.35617 -0.943538,1.02781 -3.7383,1.02781l-0.168215 0.205537 -0.123355 1.75573 -0.36265 -0.840052z"/>
   <path id="_169343896" class="fil20" d="M19.813 19.995l-1.0306 -0.162439c-0.145847,0.054078 -0.419391,0.255887 -0.55815,0.255887l-0.0934484 0c-0.405339,0 -0.288539,-0.148673 -0.74771,-0.186897l-0.0934484 -0.46716c-0.298248,-0.42906 -0.770325,-2.24239 -1.21495,-2.24239l-2.99068 0c0.0235157,0.281984 0.525704,1.36506 0.654221,1.68178 0.111106,0.273831 0.47011,1.58842 0.747669,1.58842l2.80374 0c0.549834,0 2.36399,-0.0723908 2.52335,-0.467201z"/>
   <path id="_169343656" class="fil21" d="M25.6074 20.4622l0 0.46716c-0.10918,0.162971 -0.302509,0.46716 -0.560772,0.46716l-0.0934484 0c-0.343108,0 -0.451756,-0.144782 -0.654221,-0.280304l-0.0934484 -0.654016c-0.163012,0.109098 -0.467283,0.302386 -0.467283,0.560568 0,0.265802 0.186938,0.654057 0.379652,0.626035l1.58297 0.0280222c0.28731,0 0.373794,-0.273708 0.373794,-0.560608l0 -0.186856c0,-0.286695 -0.230528,-0.403987 -0.467242,-0.46716z"/>
   <path id="_169343728" class="fil22" d="M17.757 25.4142l2.89719 1.21467 0 -0.186856 -3.27106 -1.49501c-1.06513,-0.248062 -5.81535,-3.14144 -6.89847,-3.84818 -1.36916,-0.893393 -5.25105,-3.67947 -5.25105,-5.58863 0,-1.28853 2.0507,-1.58838 3.45796,-1.58838l0.843862 -0.032242 2.89448 0.219098 0 -0.186856 -2.99068 -0.280345 -0.747669 0c-1.41738,0 -3.64486,0.463432 -3.64486,1.77523 0,3.69644 9.70098,8.4056 12.7103,9.9975z"/>
   <path id="_169343800" class="fil23" d="M22.2429 23.1717l5.42058 0c0,-1.48887 -0.753118,-2.6946 -2.05607,-2.80304l0 0.0934894c0.236714,0.0631729 0.467242,0.180465 0.467242,0.46716l0 0.186856c0,0.2869 -0.0864838,0.560608 -0.373794,0.560608l-1.58297 -0.0280222c-0.192714,0.0280222 -0.379652,-0.360233 -0.379652,-0.626035 0,-0.258181 0.304271,-0.451469 0.467283,-0.560568l0 -0.0934894c-1.26186,0.293947 -1.96262,1.21975 -1.96262,2.80304z"/>
   <path id="_169343248" class="fil5" d="M20.9345 26.0682l-0.280345 0.373753 0 0.186856 0.373835 0.280263 0.560731 0 0.467283 -0.0934074 0.280386 -0.654057 -0.263999 0.00434263 0.0770611 -0.378054 -0.654221 0c-0.138718,0 -0.412304,0.201809 -0.560731,0.280304z"/>
   <path id="_169343296" class="fil12" d="M27.8504 26.8157l1.40189 0 -0.186938 -0.654057c-0.217746,-0.145724 -0.487808,-0.373712 -0.841077,-0.373712l-0.487726 0.00536683 0.113851 0.368345 -0.349827 0.0393294 0.349827 0.614727z"/>
   <path id="_169344592" class="fil24" d="M20.9345 26.0682c0.148428,-0.078495 0.422013,-0.280304 0.560731,-0.280304l0.654221 0 -0.0770611 0.378054 0.263999 -0.00434263 -0.280386 0.654057 5.79437 0 -0.349827 -0.614727 0.349827 -0.0393294 -0.113851 -0.368345 0.487726 -0.00536683c0.353269,0 0.623331,0.227988 0.841077,0.373712l0.198081 -2.989 -1.59993 -0.0009013 -5.42058 0c-1.1113,0 -1.74672,-0.342125 -1.53303,0.784377 0.114629,0.60424 -0.0317094,1.70817 0.224628,2.11211z"/>
   <path id="_169344208" class="fil22" d="M43.2709 26.8157c-0.100536,-0.376416 -0.159448,-0.304312 -0.467242,-0.46716 0.0342494,0.411976 0.0794783,0.376825 0.467242,0.46716z"/>
   <path id="_169344280" class="fil11" d="M20.1869 31.8612l6.63553 -2.70959 -5.79437 -2.24247 -0.373835 -0.280263 -2.89719 -1.21467c1.19086,1.77798 2.42986,3.46734 2.42986,6.447z"/>
   <path id="_169343992" class="fil22" d="M45.514 28.9647c-0.16293,-0.307753 -0.0907855,-0.366665 -0.467324,-0.46716 0.0325287,0.39055 0.0766515,0.434672 0.467324,0.46716z"/>
   <path id="_169344088" class="fil25" d="M38.1308 12.6136l6.33982 -0.762991 0.0153221 0.109016c1.27042,-0.178416 3.45792,0.52005 3.45792,1.68178 0,1.97528 -2.90714,4.60544 -4.16798,5.55025 -0.726489,0.544303 -5.14351,3.98006 -5.73853,3.98006 -0.00241712,0 -0.316807,-0.151787 -0.467324,-0.186856l0.233723 0.327049 0.105698 0.0570277 -5.94686 3.35333c-0.416728,0.289481 -4.45156,2.23121 -4.95326,2.24239l3.55141 1.12126c0.015445,-0.694574 0.82936,-2.66002 1.18713,-3.01776 0.268382,-0.268301 2.19819,-1.15735 2.71918,-1.486 1.78547,-1.12642 3.53682,-2.01436 5.30866,-3.19527 2.14776,-1.43147 8.35505,-5.66553 8.35505,-8.65203 0,-1.48731 -1.82513,-1.96209 -3.36447,-1.96209l-1.50521 -0.0571096 -5.13028 0.89794z"/>
   <path id="_169344400" class="fil26" d="M2.33641 33.7298l0.467324 -1.96213c-0.330695,-0.493707 -0.841159,-0.896875 -0.841159,-1.77523l0 -0.280345c0,-1.1299 1.1576,-2.24239 2.33646,-2.24239l0.280386 0c0.916745,0 1.06353,0.302427 1.58948,0.655204l0.373138 -0.188044 0 0.280304 -0.186938 0c0.133106,0.498542 0.560772,0.761762 0.560772,1.49493l0 0.186938c0,1.14477 -1.03744,2.42925 -2.05607,2.42925l-0.841118 0c-0.394769,0 -0.614809,-0.277477 -1.02806,-0.373753l-0.373835 1.02781 1.02806 0.373712c-0.0243351,0.292267 -0.0934894,0.331924 -0.0934894,0.654057l0 0.280304c0.209634,0.0488341 0.214878,0.0934484 0.467324,0.0934484l0.654221 0c0.322174,0 0.361831,-0.0691133 0.654221,-0.0934484l0 -0.747505c0,-0.242327 0.820347,-0.560568 0.934566,-0.560568 0.115366,0 0.488218,0.545819 0.560731,0.654057 0.461629,-0.244252 1.25801,-0.796298 1.27702,-1.3574l-0.601863 -0.503048 0.353678 -1.04239 0.933747 0.0997985c0.0488341,-0.209552 0.0934484,-0.214878 0.0934484,-0.46716l0 -0.654098c0,-0.322051 -0.0691133,-0.361749 -0.0934484,-0.653975l-0.885896 -0.0208528 -0.44557 -0.940957 0.697319 -0.646642 -0.305991 -0.264491 0.27461 -0.487808 -0.422669 0.167109 -0.967914 -0.609402c-0.0394933,0.148223 -0.339094,0.653975 -0.467201,0.653975 -0.248554,0 -0.404807,-0.32963 -0.934566,-0.373712l0 -0.93432c-0.29239,-0.0243351 -0.332047,-0.0934484 -0.654221,-0.0934484l-0.654221 0c-0.252446,0 -0.25769,0.0446143 -0.467324,0.0934484l-0.0208528 0.885609 -0.959434 0.454952 -0.421562 -0.686504c-0.625953,0.0520296 -1.11696,0.789252 -1.40189,1.21462 0.159284,0.237779 0.654221,0.539551 0.654221,0.654057 0,0.349991 -0.336226,0.482564 -0.373835,0.934361l-0.934566 0c-0.0243351,0.292226 -0.0934484,0.331924 -0.0934484,0.653975l0 0.467201c0,0.322133 0.0691133,0.36179 0.0934484,0.654057l0.934566 0c0.0547744,0.235034 0.373835,0.768317 0.373835,0.840913 0,0.289399 -0.415663,0.496944 -0.654221,0.560568 0.0453518,0.544918 0.906831,1.2862 1.38788,1.39689l0.0942678 -0.179645 0.10664 0.277723z"/>
   <path id="_169344352" class="fil26" d="M4.57942 31.4874l-0.654221 0c-0.366993,0 -1.02806,-0.812153 -1.02806,-1.12118l0 -0.747505c0,-0.641439 0.778518,-1.30807 1.49534,-1.30807 0.833579,0 1.68228,0.726489 1.68228,1.49497l0 0.186856c0,0.802935 -0.707725,1.49493 -1.49534,1.49493zm-2.33646 -2.05554l0 0.934361c0,0.909698 1.17398,1.77523 2.24297,1.77523l0.186979 0c1.03166,0 2.05599,-1.12486 2.05599,-2.14899l0 -0.46716c0,-0.708135 -1.12871,-1.86872 -2.05599,-1.86872l-0.560772 0c-0.74984,0 -1.86917,1.02228 -1.86917,1.77527z"/>
   <path id="_169344184" class="fil22" d="M39.5326 32.5152l0 -0.0934074c0,-1.38358 0.896425,-2.42929 2.24297,-2.42929 1.34662,0 2.24305,1.04571 2.24305,2.42929 0,0.995977 -0.960949,2.05554 -1.96262,2.05554l-0.560772 0c-0.948208,0 -1.96262,-1.07754 -1.96262,-1.96213zm-12.7102 -3.36361l3.64482 1.21467 6.91588 1.68183c0.380308,0.0885322 1.07996,0.205251 1.42582,0.256338 0.85771,0.126674 0.368714,0.182923 0.722638,0.959352 0.336062,0.737222 0.984056,1.40046 2.05718,1.40046l0.373794 0c1.17267,0 2.24301,-1.01667 2.24301,-2.14903l0 -0.560608c0,-1.25981 -1.2,-2.14894 -2.52335,-2.14894l-0.186938 0c-0.955255,0 -1.88298,0.938827 -2.09372,1.73758 -0.247571,0.938335 -0.083698,0.551432 -1.0936,0.421153 -0.540493,-0.0696459 -1.29468,-0.0503909 -1.67248,-0.290055l-6.07472 -1.58838 -3.55141 -1.12126 -5.42054 -2.05558 -0.560731 0 5.79437 2.24247z"/>
   <path id="_169344568" class="fil27" d="M2.24297 29.4319c0,-0.752995 1.11933,-1.77527 1.86917,-1.77527l0.560772 0c0.927274,0 2.05599,1.16059 2.05599,1.86872l0 0.46716c0,1.02412 -1.02433,2.14899 -2.05599,2.14899l-0.186979 0c-1.06898,0 -2.24297,-0.865535 -2.24297,-1.77523l0 -0.934361zm0.560772 2.33584l0.186897 0.186856c0.413246,0.0962752 0.633286,0.373753 1.02806,0.373753l0.841118 0c1.01863,0 2.05607,-1.28448 2.05607,-2.42925l0 -0.186938c0,-0.733166 -0.427667,-0.996387 -0.560772,-1.49493l0.186938 0 0 -0.280304 -0.373138 0.188044c-0.525949,-0.352777 -0.672738,-0.655204 -1.58948,-0.655204l-0.280386 0c-1.17886,0 -2.33646,1.11249 -2.33646,2.24239l0 0.280345c0,0.878358 0.510463,1.28153 0.841159,1.77523z"/>
   <path id="_169344448" class="fil17" d="M3.17757 29.7121l0 0.0934894c0,0.831695 0.569949,1.40148 1.40185,1.40148 0.473551,0 1.1215,-0.553357 1.1215,-0.93432l0 -0.747464c0,-0.419145 -0.716697,-0.840913 -1.21499,-0.840913l-0.186897 0c-0.53062,0 -1.12146,0.641684 -1.12146,1.02773z"/>
   <path id="_169344616" class="fil28" d="M3.17757 29.7121c0,-0.386043 0.590843,-1.02773 1.12146,-1.02773l0.186897 0c0.498296,0 1.21499,0.421767 1.21499,0.840913l0 0.747464c0,0.380963 -0.647953,0.93432 -1.1215,0.93432 -0.8319,0 -1.40185,-0.569785 -1.40185,-1.40148l0 -0.0934894zm1.40185 1.77527c0.787613,0 1.49534,-0.691993 1.49534,-1.49493l0 -0.186856c0,-0.768481 -0.848697,-1.49497 -1.68228,-1.49497 -0.71682,0 -1.49534,0.666634 -1.49534,1.30807l0 0.747505c0,0.309023 0.661062,1.12118 1.02806,1.12118l0.654221 0z"/>
   <path id="_169344256" class="fil29" d="M36.6354 31.6743c0.377808,0.239664 1.13199,0.220409 1.67248,0.290055 1.00991,0.130279 0.846034,0.517182 1.0936,-0.421153 0.21074,-0.798756 1.13846,-1.73758 2.09372,-1.73758l0.186938 0c1.32335,0 2.52335,0.889132 2.52335,2.14894l0 0.560608c0,1.13236 -1.07033,2.14903 -2.24301,2.14903l-0.373794 0c-1.07312,0 -1.72111,-0.663234 -2.05718,-1.40046 -0.353924,-0.776429 0.135072,-0.832678 -0.722638,-0.959352 -0.345853,-0.0510873 -1.04551,-0.167806 -1.42582,-0.256338l0.00299068 1.14654 1.02506 -0.118808c0.012864,0.577487 0.280345,0.621405 0.280345,0.934361 0,0.41386 -0.560731,0.383872 -0.560731,0.654057 0,0.361749 0.853121,1.21462 1.21495,1.21462 0.20099,0 0.416278,-0.369533 0.482195,-0.598176l1.10659 0.411361 0 0.93432c0.375064,0.00835751 0.42316,0.120242 0.656351,0.111515l1.14297 -0.11467 -0.119545 -0.937925 1.12396 -0.367034c0.0510463,0.191076 0.266252,0.560608 0.467283,0.560608 0.43754,0 1.178,-0.864387 1.18382,-1.27157l-0.538813 -0.506735 0.292185 -1.04588 1.02539 0.114588c0.0243761,-0.292267 0.0934894,-0.331924 0.0934894,-0.654057l0 -0.560608c0,-0.339421 -0.11086,-0.327745 -0.186938,-0.654016 -0.292308,0.0243351 -0.331965,0.0934074 -0.65418,0.0934074l-0.280386 0c-0.012864,-0.577446 -0.280386,-0.621364 -0.280386,-0.93432 0,-0.263753 0.347902,-0.336267 0.560772,-0.654016 -0.366829,-0.693059 -0.518575,-0.846321 -1.24236,-1.23769l-0.612065 0.642504 -0.972953 -0.34233 0.117087 -0.931207c-0.292308,-0.0242941 -0.331965,-0.0934074 -0.65418,-0.0934074l-0.934566 0c-0.470888,0 -0.186938,0.52894 -0.210699,0.972052l-0.944972 0.458106 -0.620053 -0.682694c-0.503253,0.266211 -1.15698,0.704775 -1.18627,1.36211l0.59158 0.491372 -0.339872 0.949519 -1.02806 0 -0.000327745 0.375883 -0.747341 -0.0955378z"/>
   <path id="_169344736" class="fil3" d="M40.4672 32.2349c0,0.698384 0.609975,1.30807 1.3084,1.30807 0.595841,0 1.21499,-0.517428 1.21499,-1.12118l0 -0.560608c0,-0.374613 -0.578225,-0.840913 -1.02806,-0.840913l-0.280345 0c-0.726775,0 -1.21499,0.511447 -1.21499,1.21462z"/>
   <path id="_169344016" class="fil1" d="M40.4672 32.2349c0,-0.703178 0.488218,-1.21462 1.21499,-1.21462l0.280345 0c0.449831,0 1.02806,0.4663 1.02806,0.840913l0 0.560608c0,0.603748 -0.619152,1.12118 -1.21499,1.12118 -0.698425,0 -1.3084,-0.609688 -1.3084,-1.30807zm-0.280345 0c0,0.736895 0.607517,1.58842 1.21495,1.58842l0.373794 0c0.884175,0 1.58879,-0.619644 1.58879,-1.49497l0 -0.280263c0,-0.594653 -0.807032,-1.40156 -1.40185,-1.40156l-0.373794 0c-0.717025,0 -1.40189,0.827516 -1.40189,1.58838z"/>
   <polygon id="_169344304" class="fil30" points="20.1869,33.7298 30.2803,33.8233 31.2149,33.8233 31.2149,33.2627 19.3457,33.2627 19.3457,33.7298 "/>
   <path id="_169344232" class="fil29" d="M40.1868 32.2349c0,-0.760861 0.684865,-1.58838 1.40189,-1.58838l0.373794 0c0.594817,0 1.40185,0.806909 1.40185,1.40156l0 0.280263c0,0.875326 -0.704612,1.49497 -1.58879,1.49497l-0.373794 0c-0.607435,0 -1.21495,-0.851523 -1.21495,-1.58842zm-0.654221 0.280304c0,0.884585 1.01441,1.96213 1.96262,1.96213l0.560772 0c1.00167,0 1.96262,-1.05956 1.96262,-2.05554 0,-1.38358 -0.896425,-2.42929 -2.24305,-2.42929 -1.34654,0 -2.24297,1.04571 -2.24297,2.42929l0 0.0934074z"/>
   <polygon id="_169344496" class="fil14" points="20.1869,34.2904 30.2803,34.2904 30.2803,33.8233 20.1869,33.7298 "/>
   <polygon id="_169344520" class="fil31" points="20.1869,34.9445 30.2803,34.9445 31.2149,34.9445 31.2149,34.2904 30.2803,34.2904 20.1869,34.2904 19.3457,34.2904 19.3457,34.9445 "/>
   <polygon id="_169344040" class="fil32" points="20.1869,35.4117 30.2803,35.4117 30.2803,34.9445 20.1869,34.9445 "/>
   <path id="_169344376" class="fil33" d="M20.1869 31.8612c-0.641029,0.445283 -5.47843,1.85217 -6.63418,2.15026 -2.28447,0.589245 -4.81454,1.2134 -7.66486,1.2134 -1.2329,0 -4.27814,-0.655532 -3.27102,-2.24243l0.373835 -1.02781 -0.186897 -0.186856 -0.467324 1.96213c0.27252,1.16944 1.6679,1.68183 3.08408,1.68183l1.58883 0c1.74152,0 5.46016,-0.824157 6.9507,-1.27325 1.10401,-0.332662 2.07774,-0.63304 3.17942,-0.932518 0.609402,-0.165675 2.53761,-0.819896 3.04742,-1.06444l0 0.93432 10.0934 0 -0.0368714 -1.50124 0.223809 -1.20832 -3.64482 -1.21467 -6.63553 2.70959z"/>
   <polygon id="_169344064" class="fil31" points="20.1869,35.8788 30.2803,35.8788 31.2149,35.8788 31.2149,35.4117 30.2803,35.4117 20.1869,35.4117 19.3457,35.4117 19.3457,35.8788 "/>
   <polygon id="_169344112" class="fil32" points="22.9906,38.7753 27.57,38.7753 30.2803,38.6819 30.2803,35.8788 20.1869,35.8788 20.2056,38.5697 20.3738,38.7753 "/>
   <g>
    <path id="_169344424" class="fil34" d="M42.3948 2.35821l0.259738 0.0371581c0.0392475,-0.168502 0.245317,-0.776716 0.0369943,-0.776716l-0.143675 0.000860332 -0.153057 0.738697z"/>
    <path id="_169344472" class="fil35" d="M42.4697 3.98583l0 0.0739885c0,0.323608 0.194189,0.517838 0.517838,0.517838l0.0369943 0c0.188044,0 0.406855,-0.218852 0.406855,-0.406896l0 -0.147936c0,-0.198614 -0.208282,-0.406855 -0.406855,-0.406855l-0.147977 0c-0.179482,0 -0.406855,0.241712 -0.406855,0.369861z"/>
    <polygon id="_169344640" class="fil36" points="42.0258,5.79823 42.0628,5.65029 41.9148,5.65029 42.0258,5.68728 "/>
    <path id="_169344160" class="fil37" d="M41.8039 6.09414l0.112908 0.00315455 0.072022 -0.0401488 0.0369943 -0.258919 0 -0.110942 -0.110983 -0.0369943 -0.329712 -0.0364207 -0.0771431 0.443276 0.110983 0c0.0998804,0 0.10197,0.0176573 0.18493,0.0369943z"/>
    <polygon id="_169344328" class="fil38" points="41.8039,6.09414 41.9888,6.13113 41.9888,6.05714 41.9168,6.09729 "/>
    <path id="_169344664" class="fil35" d="M42.5067 8.68325l0 0.0369943c0,0.202342 0.196319,0.406855 0.406855,0.406855l0.147936 0c0.177679,0 0.406896,-0.20226 0.406896,-0.332866l0 -0.258919c0,-0.150804 -0.256461,-0.369861 -0.443849,-0.369861 -0.323649,0 -0.517838,0.194189 -0.517838,0.517797z"/>
    <path id="_169344688" class="fil39" d="M40.6573 9.75587l-0.443849 0.0369943 0 -0.444832 2.44117 0.0379775c0.0753405,0.0361749 0.218401,0.0739885 0.332907,0.0739885 0.195787,0 0.304844,-0.074644 0.62878,-0.0739885 0.234215,0.000491618 0.468512,0 0.702768,0 0.468512,0 0.937024,0 1.40554,0 0.0612884,0.0966439 0.0369533,0.251708 0.0369533,0.406855l-0.480802 0 0 -0.0739476c-0.0220409,-0.082428 -0.00864428,-0.110983 -0.110983,-0.110983l-4.36454 0c-0.115653,0 -0.104797,0.0664094 -0.147936,0.147936zm1.84939 -1.07263c0,-0.323608 0.194189,-0.517797 0.517838,-0.517797 0.187388,0 0.443849,0.219057 0.443849,0.369861l0 0.258919c0,0.130607 -0.229217,0.332866 -0.406896,0.332866l-0.147936 0c-0.210535,0 -0.406855,-0.204513 -0.406855,-0.406855l0 -0.0369943zm0.110942 -1.25756l-0.110942 0.0369943 -0.0369943 0.0369943 -0.0369943 0.443849 -0.0369943 0.0739476 -0.0369943 0.0739885 -0.0369533 0.0369943 -0.0369943 0.0739885 -0.0369943 0.0369533 -0.0369943 0.0739885 -0.0369943 0.110983 0 0.258878 -1.70141 0 0 -0.221925 0.221925 0 0.0369943 -0.0369533 0.0369533 -0.0369943 0.0369943 -0.0369943 0 -0.813751 -0.0369943 -0.0369533 -0.0369533 -0.0369943 -0.0739885 -0.0369943 -0.406855 0 0 -0.110983 2.84803 0 0 0.110983 -0.480843 0zm-0.62878 -1.36854l0 0.0739885 -0.18493 -0.0369943c-0.0829605,-0.019337 -0.0850499,-0.0369943 -0.18493,-0.0369943l-0.110983 0 0.0771431 -0.443276 0.329712 0.0364207 0.147977 0 -0.0369943 0.147936 -0.0369943 0.258919zm1.7754 -1.70141l0.0010242 -0.15318 0.109959 0.0421972 0.0739476 0.0369943 0.0739885 0.0369943 0.0739885 0.0369943 0.0739885 0.0369533 0.0739476 0.0369943 0.0739885 0.0369943 0.0369943 0.0369943 0.0369533 0.0369943 0.0739885 0.0369943 0.0369943 0.0369533 0.0369943 0.0369943 0.0369943 0.0369943 0.0369533 0.0369943 0.0739885 0.0369943 0.0369943 0.0369943 0.0369943 0.0369533 0.0369943 0.0739885 0.0369943 0.0369943 0.0369533 0.0369943 0.0369943 0.0369943 0.0369943 0.0739476 0.0369943 0.0369943 0.0369943 0.0739885 0.0369533 0.0369943 0.0369943 0.0739476 0.0369943 0.0739885 0.0369943 0.0739885 0.0369943 0.0739476 0.0369943 0.110983 0.0369943 0.110942 0.0369533 0.110983 0.0369943 0.18493 0.0369943 0.295913 0 0.221925 -0.0369943 0.295872 -0.0369943 0.184971 -0.0369533 0.110942 -0.0369943 0.110942 -0.0369943 0.110983 -0.0369943 0.0739885 -0.0369943 0.0739476 -0.0369943 0.0739885 -0.0369943 0.0739885 -0.0369533 0.0369943 -0.0369943 0.0739476 -0.0369943 0.0739885 -0.0369943 0.0369943 -0.0369943 0.0369943 -0.0369533 0.0369533 -0.0369943 0.0369943 -0.0369943 0.0739885 -0.0369943 0.0369943 -0.0369943 0.0369943 -0.0369943 0.0369943 -0.0369943 0.0369533 -0.0369533 0.0369943 -0.0739885 0.0369943 -0.0369943 0.0369943 -0.0369943 0.0369943 -0.0739476 0.0369943 -0.0369943 0.0369533 -0.0739885 0.0369943 -0.0369943 0.0369943 -0.0739476 0.0369943 -0.0739885 0.0369943 -0.0739885 0.0369533 -0.110942 0.0369943 -0.0369943 -0.110942 0 -0.0739885 0.0739476 -0.0369943 0.0739885 -0.0369533 0.0739885 -0.0369943 0.0739885 -0.0369943 0.0369943 -0.0369943 0.0739476 -0.0369943 0.0369943 -0.0369943 0.0739885 -0.0369533 0.0369533 -0.0369943 0.0369943 -0.0369943 0.0369943 -0.0369943 0.0369943 -0.0369943 0.0369943 -0.0369943 0.0369943 -0.0369943 0.0369533 -0.0369533 0.0369943 -0.0369943 0.0369943 -0.0369943 0.0369943 -0.0369943 0.0369943 -0.0739476 0.0369943 -0.0369943 0.0369943 -0.0369943 0.0369533 -0.0739885 0.0369943 -0.0739885 0.0369943 -0.0369533 0.0369943 -0.0739885 0.0369943 -0.110983 0.0369533 -0.0739476 0.0369943 -0.110983 0.0369943 -0.110942 0.0369943 -0.18493 0 -0.739762 -0.0369943 -0.18493 -0.0369943 -0.110983 -0.0369943 -0.110942 -0.0369533 -0.0739885 -0.0369943 -0.110983 -0.0369943 -0.0739476 -0.0369943 -0.0369943 -0.0369943 -0.0739885 -0.0369533 -0.0739476 -0.0369943 -0.0369943 -0.0369943 -0.0369943 -0.0369943 -0.0739885 -0.0369943 -0.0369533 -0.0369943 -0.0369943 -0.0369943 -0.0369943 -0.0369533 -0.0369943 -0.0369943 -0.0369943 -0.0369943 -0.0369943 -0.0369943 -0.0369943 -0.0369943 -0.0369533 -0.0369943 -0.0369943 -0.0739476 -0.0369943 -0.0369943 -0.0369943 -0.0369943 -0.0369943 -0.0739476 -0.0369943 -0.0369943 -0.0369533 -0.0739885 -0.0369943 -0.0739885 -0.0369943 -0.0739885 -0.0369943 -0.0739476 -0.0369943 -0.116513 -0.00184357 0.042525 -0.072104zm-1.29455 -0.369902c0,-0.128148 0.227373,-0.369861 0.406855,-0.369861l0.147977 0c0.198573,0 0.406855,0.208241 0.406855,0.406855l0 0.147936c0,0.188044 -0.218811,0.406896 -0.406855,0.406896l-0.0369943 0c-0.323649,0 -0.517838,-0.19423 -0.517838,-0.517838l0 -0.0739885zm0.443849 -0.924693l-0.0369943 0.147977 0 0.0739476 -0.18493 0 -0.110983 0.0369943 -0.0369533 0.0369943 -0.0739885 0.0369943 -0.0369943 0.0369943 -0.0739885 0.0369533 -0.0369533 0.0739885 -0.0369943 0.0369943 -0.0369943 0.0369943 -0.0369943 0.0369943 -0.0369943 0.0739476 -0.0369943 0.110983 0 0.517838 0.0369943 0.110942 0.0369943 0.0739885 0.0369943 0.0369943 0.0369943 0.0369533 0.0369943 0.0739885 0.0369533 0.0369943 0.0369943 0.0369943 0.0739885 0.0369943 0.0786179 0.000327745 -0.0416237 0.221597 -0.0369943 0.18493 -0.0369943 0.147936 -0.0739885 0 -0.147936 -0.0369943 -0.147936 -0.0369943 -0.18493 -0.0369533 -0.184971 -0.0369943 -0.147936 -0.0369943 -0.19001 -0.000655491 0.0420743 -0.147281 0.0369533 -0.221925 0.0369943 -0.184971 0.0369943 -0.18493 0.0369943 -0.147936 0.0369943 -0.18493 0.0369943 -0.147977 0.0369533 -0.221925 0.0369943 -0.18493 0.0369943 -0.18493 0.0369943 -0.147936 0.0369943 -0.184971 0.0369943 -0.147936 0.0369943 -0.221925 0.0369533 -0.0369943 0.18493 0.0369943 0.147977 0.0369943 0.18493 0.0369943 0.18493 0.0369943 0.147977 0.0369533 0.227455 0.00188454 -0.042525 0.072104 -0.0369943 0.18493zm-0.3656 -1.44163l0.143675 -0.000860332c0.208323,0 0.00225325,0.608213 -0.0369943,0.776716l-0.259738 -0.0371581 0.153057 -0.738697zm-0.152238 -0.333768l-0.0739476 0.0369943 -0.0369943 0.0369943 -0.0369943 0.0739885 -0.0369943 0.0739476 -0.0369943 0.147936 -0.0369943 0.147977 -0.0369943 0.221925 -0.0369533 0.18493 -0.110983 0 -0.18493 0 -0.0739885 0.0369943 -0.0739476 0.0369943 -0.0369943 0.0369943 -0.0369943 0.0739476 -0.0369943 0.0369943 -0.0369943 0.18493 -0.0369943 0.18493 -0.0369533 0.184971 -0.0369943 0.18493 -0.0369943 0.147936 -0.0369943 0.18493 -0.0369943 0.184971 -0.0369533 0.18493 -0.0369943 0.18493 -0.0369943 0.18493 -0.0369943 0.147936 -0.0369943 0.184971 -0.0369943 0.18493 -0.0369943 0.18493 0 0.110983 -0.295872 0 -0.0369943 0.0369533 -0.0369943 0.0739885 0 0.110942 0.0369943 0.0739885 0.0369943 0.0369943 0.110942 0.0369943 0.18493 0.0369943 0.110983 0.0369533 0.0739885 0.0369943 0.0790276 0.000655491 -0.0420333 0.147322 -0.0369943 0.18493 0 0.258919 0.0369943 0.110942 0.0369533 0.0369943 0.0369943 0.0369943 0.0739885 0.0369943 0.110942 0.0369943 0.147977 0.0369533 0.18493 0.0369943 0.258919 0 0.0739476 -0.0369943 0.0369943 -0.0369533 0.0739885 -0.0369943 0.0369943 -0.0739885 0.0369943 -0.147936 0.0369533 -0.147977 0.000245809 -0.18915 0.295667 0.041214 0.147936 0.0369943 0.258919 0 0.0369943 -0.0369943 0.0369943 -0.0369943 0 -0.221925 -0.0369943 -0.0369943 -0.0369943 -0.0369943 -0.18493 -0.0369533 -0.0795192 -0.00184357 0.042525 -0.072145 0.0369943 -0.147936 0.0369943 -0.18493 0 -0.147977 0.258919 0 0.110942 -0.0369943 0.0739885 -0.0369943 0.0739885 -0.0369533 0.0369943 -0.0369943 0.0369533 0 0.147977 0.0369943 0.0739885 0.0369533 0.0739476 0.0369943 0.0739885 0.0369943 0.0739476 0.0369943 0.0369943 0.0369943 0.0739885 0.0369943 0.0369943 0.0369943 0.0369943 0.0369533 0.0739476 0.0369943 0.0369943 0.0369943 0.0369943 0.0369943 0.0369943 0.0369943 0.0369943 0.0369533 0.0369533 0.0739885 0.0369943 0.0369943 0.0369943 0.0369943 0.0369943 0.0739476 0.0369943 0.0369943 0.0369943 0.0739885 0.0369533 0.0739885 0.0369943 0.0739476 0.0369943 0.110983 0.0369943 0.110942 0.0369943 0.147977 0 0.665774 -0.0369943 0.147936 -0.0369943 0.110983 -0.0369943 0.110942 -0.0369943 0.0739885 -0.0369533 0.0739476 -0.0369943 0.0739885 -0.0369943 0.0369943 -0.0369943 0.0739885 -0.0369943 0.0369533 -0.0369943 0.0369943 -0.0369533 0.0739885 -0.0369943 0.0369943 -0.0369943 0.0369943 -0.0369943 0.0369943 -0.0369943 0.0369533 -0.0369533 0.0369943 -0.0739885 0.0369943 -0.0369943 0.0369943 -0.0369943 0.0369943 -0.0739885 0.0369533 -0.0739476 0.0369943 -0.0369943 0.0369943 -0.0739885 0.0369943 -0.147936 0 -0.0369943 -0.0369943 -0.0369943 -0.0369943 -0.0369943 -0.0369943 -0.0369533 -0.0369533 -0.0739885 -0.0369943 -0.0739885 -0.0369943 -0.147936 -0.0369943 -0.332907 0 0 -0.0369943 0.554832 0 0.0369943 -0.0369533 0.0369943 -0.0739885 0 -0.62878 -0.0369943 -0.0739885 -0.0369943 -0.0369943 -3.43985 0 -0.0369943 0.0369943 0 0.776757 0.0369943 0.0369533 0.480843 0 0 0.295913 -0.258919 0 -0.0369943 0.0369943 -0.0369943 0.0369943 0 0.776716 0.0369943 0.0369943 0.0369943 0.0369943 2.07131 0 0 0.0369943 -2.21925 0 -0.0739885 0.0369943 -0.0369943 0.0739476 0 0.887698 0.0369943 0.0369943 0.0739885 0.0369943 0.850704 0 0.0739885 -0.0369943 0.0369533 -0.0369943 0 -0.110942 3.99468 0 0 0.110942 0.0369943 0.0369943 0.0739476 0.0369943 0.850745 0 0.0739476 -0.0369943 0.0369943 -0.0369943 0 -0.887698 -0.0369943 -0.0369943 -0.0369533 -0.0369533 -0.0369943 -0.0369943 -1.89195 -0.016674 0.0795602 -0.0203202 0.0739476 -0.0369943 0.110983 -0.0369943 0.0369943 -0.0369943 0.0739476 -0.0369533 0.0739885 -0.0369943 0.0369943 -0.0369943 0.0739476 -0.0369943 0.0369943 -0.0369943 0.0369943 -0.0369943 0.0739885 -0.0369943 0.0369943 -0.0369533 0.0369943 -0.0369943 0.0369533 -0.0369943 0.0369943 -0.0369943 0.0369943 -0.0369943 0.0369943 -0.0369533 0.0369943 -0.0369943 0.0369533 -0.0369943 0.0369943 -0.0369943 0.0369943 -0.0369943 0.0369943 -0.0369943 0.0369943 -0.0739476 0.0369943 -0.0369943 0.0369943 -0.0369943 0.0369533 -0.0739885 0.0369943 -0.0369943 0.0369943 -0.0739476 0.0369943 -0.0739885 0.0369943 -0.0369943 0.0369943 -0.0739476 0.0369943 -0.0739885 0.0369533 -0.0739885 0.0369943 -0.110942 0.0369943 -0.110983 0.0369943 -0.110942 0.0369943 -0.147936 0.0369533 -0.184971 0 -0.887698 -0.0369533 -0.18493 -0.0369943 -0.147936 -0.0369943 -0.110983 -0.0369943 -0.110942 -0.0369943 -0.0739885 -0.0369533 -0.110983 -0.0369943 -0.0739476 -0.0369943 -0.0739885 -0.0369943 -0.0369943 -0.0369943 -0.0739476 -0.0369943 -0.0739885 -0.0369943 -0.0369943 -0.0369533 -0.0739885 -0.0369943 -0.0369533 -0.0369943 -0.0369943 -0.0369943 -0.0739885 -0.0369943 -0.0369943 -0.0369943 -0.0369943 -0.0369943 -0.0369533 -0.0369533 -0.0369943 -0.0369943 -0.0369943 -0.0369943 -0.0369943 -0.0369943 -0.0369943 -0.0369943 -0.0369943 -0.0369533 -0.0369533 -0.0369943 -0.0369943 -0.0739885 -0.0369943 -0.0369943 -0.0369943 -0.0369943 -0.0369943 -0.0369943 -0.0369943 -0.0739476 -0.0369943 -0.0739885 -0.0369533 -0.0369943 -0.0369943 -0.0739476 -0.0369943 -0.0739885 -0.0369943 -0.0739885 -0.0369943 -0.0739476 -0.0369533 -0.110983 -0.0369943 -0.0739885 -0.0369943 -0.110942 -0.0369943 -0.110942 0 0 -0.0739885 -0.0369943 -0.0739476 -0.0369943 -0.0369943 -0.0369943 -0.0739885 -0.0369943 -0.0369943 -0.0369943 -0.0369943 -0.0369943 -0.0369533 -0.0739476 -0.0369943 -0.0369943 -0.0369943 -0.0739885 -0.0369943 -0.0795192 -0.00184357 0.042525 -0.072104 0.0369943 -0.147977 0.0369943 -0.18493 0 -0.18493 -0.0369943 -0.110983 -0.0369943 -0.0369533 -0.0369943 -0.0369943 -0.0369533 -0.0369943 -0.0739885 -0.0369943 -0.110942 -0.0369943 0 -0.0739885 0.0369533 -0.18493 0.0369943 -0.147936 0.0369943 -0.18493 0 -0.332907 -0.0369943 -0.0369943 -0.0369943 -0.0739476 -0.0369533 -0.0369943 -0.0739885 -0.0369943 -0.147977 -0.0369943 -0.147936 -0.0369943 -0.147936 0 -0.110983 0.0369943z"/>
    <polygon id="_169344712" class="fil40" points="40.6573,9.75587 40.2504,9.75587 40.2504,9.38601 42.6546,9.38601 40.2134,9.34804 40.2134,9.79287 "/>
    <path id="_169345192" class="fil35" d="M40.6573 9.75587c0.0431395,-0.0815267 0.0322829,-0.147936 0.147936,-0.147936l4.36454 0c0.102338,0 0.0889419,0.0285548 0.110983,0.110983 0.045106,0.0253183 0.0395343,0.0369533 0.110942,0.0369533l0.332907 0 0 -0.369861c-0.468512,0 -0.937024,0 -1.40554,0 -0.234256,0 -0.468553,0.000491618 -0.702768,0 -0.323935,-0.000655491 -0.432993,0.0739885 -0.62878,0.0739885 -0.114506,0 -0.257567,-0.0378136 -0.332907,-0.0739885l-2.40418 0 0 0.369861 0.406855 0z"/>
    <path id="_169344976" class="fil41" d="M45.2807 9.71892l0 0.0739476 0.480802 0c0,-0.155146 0.0243351,-0.310211 -0.0369533,-0.406855l0 0.369861 -0.332907 0c-0.0714075,0 -0.0658359,-0.011635 -0.110942,-0.0369533z"/>
   </g>
  </g>
 </g>
</svg>
