<?xml version="1.0" encoding="UTF-8"?>
<!DOCTYPE svg PUBLIC "-//W3C//DTD SVG 1.1//EN" "http://www.w3.org/Graphics/SVG/1.1/DTD/svg11.dtd">
<!-- Creator: CorelDRAW -->
<svg xmlns="http://www.w3.org/2000/svg" xml:space="preserve" width="23.1168mm" height="23.1168mm" style="shape-rendering:geometricPrecision; text-rendering:geometricPrecision; image-rendering:optimizeQuality; fill-rule:evenodd; clip-rule:evenodd"
viewBox="0 0 1.94401 1.94401"
 xmlns:xlink="http://www.w3.org/1999/xlink">
 <defs>
  <style type="text/css">
   <![CDATA[
    .fil0 {fill:#26130C}
    .fil4 {fill:#354A5D}
    .fil6 {fill:#45A4AC}
    .fil1 {fill:#948855}
    .fil3 {fill:#AF9B8F}
    .fil5 {fill:#D7C68F}
    .fil2 {fill:#FBCD98}
   ]]>
  </style>
 </defs>
 <g id="Layer_x0020_1">
  <metadata id="CorelCorpID_0Corel-Layer"/>
  <g id="_583210896">
   <path id="_575779000" class="fil0" d="M0.634667 0.842659l0.0593292 0.148336 0.00357405 -0.203367 0.0818583 -0.0679321 0.011521 0.041871 0.140389 -0.0375737 0.121198 -0.057765 -0.0322001 0.057765 0.202207 -0.0585807 0.0351266 0.295914 0.0296688 0 0.0296688 -0.118667 0.0296688 -0.326331c-0.0345463,-0.0231346 -0.260838,-0.148336 -0.296671,-0.148336l-0.148336 0c-0.207581,0 -0.375267,0.24904 -0.267002,0.474667z"/>
   <polygon id="_580318872" class="fil1" points="0.931338,0.723993 0.995612,0.758606 1.02034,0.723993 1.05254,0.666228 "/>
   <path id="_583210128" class="fil2" d="M1.02034 0.723993l-0.024724 0.0346136 -0.064274 -0.0346136 -0.140389 0.0375737 -0.011521 -0.041871 -0.0818583 0.0679321 -0.00357405 0.203367 0 0.0890064 0.118675 0.237334c0.0496246,0.0523156 0.0717921,0.088998 0.177996,0.088998l0.0296688 0c0.0832038,0 0.0722714,-0.0356227 0.118667,-0.088998l0.181175 -0.312136 0.0302322 0.0151876 -0.0334026 -0.177727 -0.0296688 0.118667 0 0.0593376 -0.0637862 -0.00148008 0.0341174 -0.0578575 -0.0351266 -0.295914 -0.202207 0.0585807z"/>
   <path id="_583209816" class="fil3" d="M0.693996 1.08l0 -0.0890064 -0.0593292 -0.148336 -0.0593376 0c0.00337222,0.151203 0.0260275,0.175296 0.118667,0.237342z"/>
   <polygon id="_583209984" class="fil1" points="1.28734,0.961326 1.25767,0.961326 1.22355,1.01918 1.28734,1.02066 "/>
   <path id="_583209840" class="fil4" d="M0.322253 1.69481l0.490418 -0.28848 0 -0.088998 -0.118675 -0.237334c-0.0926393,-0.0620455 -0.115295,-0.0861387 -0.118667,-0.237342l0.0593376 0c-0.108264,-0.225627 0.0594217,-0.474667 0.267002,-0.474667l0.148336 0c0.035833,0 0.262125,0.125201 0.296671,0.148336l-0.0296688 0.326331 0.0334026 0.177727 -0.0302322 -0.0151876 -0.181175 0.312136 0.0296688 0.118667 0.118667 0.0296688 0.338382 0.225585c0.195521,-0.177811 0.318292,-0.434217 0.318292,-0.71925 0,-0.536729 -0.435277,-0.972006 -0.972006,-0.972006 -0.536729,0 -0.972006,0.435277 -0.972006,0.972006 0,0.286958 0.124436,0.544861 0.322253,0.722807z"/>
   <path id="_583210104" class="fil5" d="M0.812671 1.40633l0.158511 0.363451 0.0788224 -0.0964488 0.118667 -0.237334 -0.0296688 -0.118667c-0.0463953,0.0533752 -0.035463,0.088998 -0.118667,0.088998l-0.0296688 0c-0.106204,0 -0.128371,-0.0366823 -0.177996,-0.088998l0 0.088998z"/>
   <path id="_583209720" class="fil6" d="M1.62572 1.69126l-0.338382 -0.225585 -0.0593376 0.177996 0.182453 0.0133543 -0.0698327 0.0178366 0.0340249 0.153289 -0.134771 -0.030207 0.0177945 0.0534005 -0.088998 0 0.00117733 0.0724817c0.173287,-0.0358582 0.329729,-0.117834 0.455872,-0.232565zm-0.47851 0.236955l-0.101654 -0.0308882 0.0637778 -0.0163229 0 -0.0593292 -0.0593292 0 0 -0.148336 -0.0788224 0.0964488 -0.158511 -0.363451 -0.490418 0.28848c0.172193,0.154887 0.399982,0.249199 0.649753,0.249199 0.0598253,0 0.118364,-0.00544096 0.175204,-0.0158015z"/>
   <path id="_583209552" class="fil6" d="M1.05 1.67334l0 0.148336 0.0593292 0 0 0.0593292 -0.0637778 0.0163229 0.101654 0.0308882c0.00756857,-0.00137916 0.0151287,-0.00283401 0.0226384,-0.00438977l-0.00117733 -0.0724817 0.088998 0 -0.0177945 -0.0534005 0.134771 0.030207 -0.0340249 -0.153289 0.0698327 -0.0178366 -0.182453 -0.0133543 0.0593376 -0.177996 -0.118667 -0.0296688 -0.118667 0.237334z"/>
  </g>
 </g>
</svg>
