<?xml version="1.0" encoding="UTF-8"?>
<!DOCTYPE svg PUBLIC "-//W3C//DTD SVG 1.1//EN" "http://www.w3.org/Graphics/SVG/1.1/DTD/svg11.dtd">
<!-- Creator: CorelDRAW -->
<svg xmlns="http://www.w3.org/2000/svg" xml:space="preserve" width="23.1168mm" height="23.1168mm" style="shape-rendering:geometricPrecision; text-rendering:geometricPrecision; image-rendering:optimizeQuality; fill-rule:evenodd; clip-rule:evenodd"
viewBox="0 0 1.58704 1.58704"
 xmlns:xlink="http://www.w3.org/1999/xlink">
 <defs>
  <style type="text/css">
   <![CDATA[
    .fil3 {fill:#272627}
    .fil5 {fill:#53AAAA}
    .fil4 {fill:#8EDDAA}
    .fil1 {fill:#91DEAA}
    .fil0 {fill:#93DCAC}
    .fil7 {fill:#EBF4F7}
    .fil6 {fill:#F7F7F8}
    .fil2 {fill:#FBCD98}
   ]]>
  </style>
 </defs>
 <g id="Layer_x0020_1">
  <metadata id="CorelCorpID_0Corel-Layer"/>
  <g id="_579802472">
   <path id="_575778880" class="fil0" d="M0.323973 0.153844c0.080166,-0.0083276 0.0467595,-0.02212 0.107874,-0.0130715l0.19369 -0.00988602 -0.000659068 -0.0450157 -0.0719963 -0.0276465c0.100343,0.00223808 0.092345,0.0242207 0.145318,0.0242207 0.0912122,0 0.0457915,-0.0159412 0.157153,-0.0198819l-0.0608676 0.134869 -0.248132 0.0406768 0.0791842 0.0380886 0 0.0726553c0.0475833,-0.025175 0.0714265,-0.0484346 0.145318,-0.0484346l0.0726553 0c0.226699,0 0.266414,0.220616 0.266414,0.460167l0.025429 0.048668 0.0472263 -0.242427c0.0779279,0.0521831 0.135287,0.0726622 0.266414,0.0726622l0.095709 -0.00023342 -0.0230536 0.145544 -0.194775 0.000954275 0.0494575 0.0717079 0.193759 0 0 0.0996909c0.0110806,-0.0528147 0.0169435,-0.107531 0.0169435,-0.163634 0,-0.43817 -0.355347,-0.793518 -0.793518,-0.793518 -0.17569,0 -0.338054,0.0571535 -0.469545,0.153844z"/>
   <path id="_575778928" class="fil1" d="M0.254723 0.211073l-0.0436495 0.0436495c-0.130976,0.141514 -0.211073,0.330811 -0.211073,0.538795 0,0.200906 0.0747287,0.384353 0.197871,0.524165 0.0453384,-0.106295 0.181642,-0.121152 0.33079,-0.121152l0.0242207 -0.0484415 -0.0968761 0c0.0227378,-0.0976038 0.0726553,-0.121014 0.0726553,-0.217973 0,-0.105801 -0.0484346,-0.0879512 -0.0484346,-0.193752l0 -0.0242207c0,-0.239702 0.0589934,-0.234381 0.145311,-0.36329l0 -0.0726553 -0.0791842 -0.0380886 0.248132 -0.0406768 0.0608676 -0.134869c-0.111362,0.00394068 -0.0659411,0.0198819 -0.157153,0.0198819 -0.0529726,0 -0.0449745,-0.0219827 -0.145318,-0.0242207l0.0719963 0.0276465 0.000659068 0.0450157 -0.19369 0.00988602c-0.0611148,-0.00904845 -0.0277083,0.00474391 -0.107874,0.0130715 -0.0241658,0.0177742 -0.0472744,0.0368941 -0.0692502,0.057229z"/>
   <path id="_575778952" class="fil2" d="M0.649758 1.09965c0.0986954,0.026349 0.106343,0.0968761 0.145318,0.0968761 0.0885691,0 0.052286,-0.0655704 0.169531,-0.0968761l-0.0242207 -0.0726622c0.02915,-0.0435259 0.121097,-0.180996 0.121097,-0.242194 0,-0.108705 -0.151997,-0.290628 -0.266408,-0.290628 -0.10186,0 -0.17998,0.146176 -0.217973,0.230083l-0.0540573 0.0148222 0.155451 0.289653 -0.0287381 0.0709253z"/>
   <path id="_580995808" class="fil3" d="M0.625538 0.348853c-0.0863173,0.12891 -0.145311,0.123589 -0.145311,0.36329l0 0.0242207c0,0.105801 0.0484346,0.0879512 0.0484346,0.193752 0,0.0969585 -0.0499175,0.120369 -0.0726553,0.217973l0.0968761 0 0.0968761 -0.0484346 0.0287381 -0.0709253 -0.155451 -0.289653 0.0540573 -0.0148222c0.0379925,-0.0839076 0.116113,-0.230083 0.217973,-0.230083 0.11441,0 0.266408,0.181923 0.266408,0.290628 0,0.0611972 -0.0919468,0.198668 -0.121097,0.242194l0.0242207 0.0726622 0.0726622 0.0484346 0.0726553 0c-0.0161746,-0.0605724 -0.0726553,-0.12431 -0.0726553,-0.145318 0,-0.0824247 0.0372167,-0.186338 0.0726553,-0.242187 0,-0.239551 -0.0397157,-0.460167 -0.266414,-0.460167l-0.0726553 0c-0.0738911,0 -0.0977342,0.0232596 -0.145318,0.0484346z"/>
   <path id="_579801296" class="fil4" d="M1.10992 0.760585c-0.0354386,0.0558491 -0.0726553,0.159762 -0.0726553,0.242187 0,0.0210078 0.0564807,0.0847451 0.0726553,0.145318l-0.0726553 0 0.0484346 0.0484415 0.218158 0.0239187 0.0966907 0.0487367 0 0.0352327c0.0827954,-0.0982629 0.142173,-0.216888 0.169538,-0.347267l0 -0.0996909 -0.193759 0 -0.0494575 -0.0717079 0.194775 -0.000954275 0.0230536 -0.145544 -0.095709 0.00023342c-0.131127,0 -0.188487,-0.0204792 -0.266414,-0.0726622l-0.0472263 0.242427 -0.025429 -0.048668z"/>
   <path id="_579801128" class="fil5" d="M0.759596 1.58625l-0.0129617 -0.050659 -0.217973 -0.339063c-0.149148,0 -0.285452,0.0148565 -0.33079,0.121152 0.138466,0.157181 0.338143,0.259165 0.561725,0.26857z"/>
   <path id="_579801704" class="fil6" d="M0.552882 1.14809l-0.0242207 0.0484415 0.217973 0.339063 0.0726622 0 0.00291088 -0.0933611 0.0697445 -0.0519496 0.0726553 0 0.121097 -0.193752 -0.0484346 -0.0484415 -0.0726622 -0.0484346c-0.117245,0.0313057 -0.0809623,0.0968761 -0.169531,0.0968761 -0.0389742,0 -0.0466222,-0.0705271 -0.145318,-0.0968761l-0.0968761 0.0484346z"/>
   <path id="_579801440" class="fil5" d="M0.964607 1.39028l-0.107902 0.194226c0.128147,-0.0101057 0.247727,-0.0506727 0.35153,-0.114451l0.0489083 -0.0326101c0.0531167,-0.0383083 0.101284,-0.0830357 0.143409,-0.133029l0 -0.0352327 -0.0966907 -0.0487367 -0.218158 -0.0239187 -0.121097 0.193752z"/>
   <path id="_579801632" class="fil7" d="M0.746634 1.53559l0.0129617 0.050659c0.0112522,0.000473705 0.0225525,0.000782643 0.0339214,0.000782643 0.0212755,0 0.0423314,-0.000878757 0.0631881,-0.00252643l0.107902 -0.194226 -0.0726553 0 -0.0697445 0.0519496 -0.00291088 0.0933611 -0.0726622 0z"/>
  </g>
 </g>
</svg>
